<svg width="84" height="81" fill="none" xmlns="http://www.w3.org/2000/svg"><path fill-rule="evenodd" clip-rule="evenodd" d="M25.6636 1.05004e-06C10.5828 6.37314 0 21.3029 0 38.7044C0 40.4635 0.10814 42.1973 0.318134 43.8996L1.16693 42.4294C1.05644 41.2025 1 39.9601 1 38.7044C1 22.1971 10.7555 7.96819 24.8157 1.46859L25.6636 1.05004e-06ZM82.8331 42.4294C82.9436 41.2025 83 39.9601 83 38.7044C83 22.1971 73.2445 7.96819 59.1843 1.46859L58.3364 0C73.4172 6.37314 84 21.3029 84 38.7044C84 40.4635 83.8919 42.1973 83.6819 43.8996L82.8331 42.4294ZM18.3563 72.2044C25.0377 76.9287 33.1947 79.7044 42 79.7044C50.8053 79.7044 58.9623 76.9287 65.6437 72.2044H67.3366C60.2938 77.5394 51.5165 80.7044 42 80.7044C32.4835 80.7044 23.7062 77.5394 16.6633 72.2044H18.3563Z" fill="white"/></svg>