<svg width="51" height="25" fill="none" xmlns="http://www.w3.org/2000/svg"><mask id="path-1-inside-1_14_84" fill="white"><path d="M50.9853 11.721C50.9589 11.5913 50.8984 11.4709 50.8101 11.3724C50.7217 11.2739 50.6087 11.2007 50.4826 11.1604C50.4648 11.1545 50.4467 11.1491 50.4285 11.1445C50.4228 11.1431 50.4175 11.1408 50.4119 11.1396L50.0496 11.0614C46.5736 10.1764 42.9814 7.58896 41.4984 6.4326C41.3675 6.33056 41.2375 6.2274 41.1084 6.12311C35.7438 1.78693 32.4799 0.151842 29.84 0.478958C29.5683 0.512329 29.3 0.568643 29.0378 0.647298C27.9104 0.986368 26.9158 1.743 26.0153 2.9419C25.9428 3.03843 25.8729 3.13691 25.8057 3.23724C25.7115 3.37779 25.5754 3.3988 25.5027 3.3988C25.43 3.3988 25.2941 3.37779 25.1996 3.23704C25.1332 3.13813 25.0643 3.04098 24.9928 2.94568L24.99 2.9418C23.8859 1.47196 22.6405 0.667121 21.1824 0.48125C18.6375 0.156226 15.4018 1.73284 10.3608 5.75107C10.2842 5.8121 10.2205 5.8876 10.1731 5.97328C10.1257 6.05895 10.0956 6.15312 10.0847 6.25041C10.0625 6.44689 10.1192 6.64414 10.2425 6.79876C10.3657 6.95339 10.5453 7.05272 10.7418 7.07491C10.9383 7.09711 11.1355 7.04034 11.2902 6.9171C15.9233 3.22419 18.9159 1.69529 20.9939 1.96045C22.0457 2.09452 22.9367 2.69098 23.7976 3.83728C23.8536 3.91199 23.9087 3.98969 23.9614 4.06808C24.1309 4.32126 24.3602 4.52873 24.629 4.67211C24.8978 4.81549 25.1978 4.89035 25.5025 4.89005H25.5026C25.7313 4.89021 25.9581 4.84806 26.1716 4.76574C26.5272 4.62835 26.8318 4.3847 27.044 4.06798C27.0964 3.98972 27.1509 3.91289 27.2075 3.83758C28.0716 2.68709 28.9664 2.09014 30.0234 1.95905C32.1878 1.6907 35.2221 3.28296 40.1708 7.28316C40.3526 7.42984 40.5357 7.57487 40.7201 7.71825C40.8478 7.81769 40.9761 7.9163 41.1051 8.01409C41.1205 8.02585 41.1362 8.038 41.1517 8.04966C41.3256 8.18085 41.5008 8.31041 41.6771 8.43833C41.795 8.52399 41.912 8.60796 42.0283 8.69024C42.0517 8.70678 42.0753 8.72381 42.0986 8.74025C42.2337 8.83537 42.3675 8.92801 42.5003 9.01865C42.5327 9.04077 42.5648 9.06238 42.5971 9.0843C42.7073 9.1589 42.8166 9.23211 42.925 9.30363C42.953 9.32206 42.9811 9.34089 43.009 9.35922C43.1382 9.44388 43.266 9.52646 43.3926 9.60694C43.4209 9.62497 43.4489 9.64241 43.4771 9.66014C43.5821 9.72638 43.6861 9.79112 43.7891 9.85457C43.8191 9.873 43.8493 9.89173 43.8792 9.90996C44.0023 9.98506 44.1242 10.0584 44.2447 10.1295L44.3124 10.1691C44.4143 10.2289 44.5151 10.2873 44.6149 10.3443C44.6456 10.3618 44.6763 10.3793 44.7067 10.3965C44.8218 10.4618 44.9374 10.5262 45.0534 10.5899L45.0977 10.6139C45.2273 10.6845 45.3575 10.7541 45.4882 10.8227C45.5984 10.8804 45.7078 10.9372 45.815 10.9915L45.8286 10.9983C46.0485 11.1093 46.2699 11.2172 46.4928 11.322C46.5054 11.3279 46.5182 11.3342 46.5308 11.3399C46.6299 11.3863 46.7269 11.4305 46.8226 11.4737L46.8565 11.4893C43.7813 11.712 38.8021 11.8013 33.1114 10.8594C31.069 10.5217 28.6404 11.3785 26.9632 12.1571L26.9488 12.1638C26.4955 12.3727 26.0023 12.481 25.5031 12.4812C25.0039 12.4815 24.5106 12.3737 24.0571 12.1653L24.0395 12.1571C22.3623 11.3785 19.9339 10.5213 17.8913 10.8594C12.1932 11.8026 7.21326 11.7126 4.13972 11.4892C5.32696 10.9563 6.78892 10.1817 8.43377 9.06627C8.51617 9.01192 8.58696 8.94174 8.64203 8.85982C8.6971 8.77789 8.73536 8.68585 8.75457 8.58902C8.77379 8.4922 8.77359 8.39252 8.75398 8.29577C8.73437 8.19903 8.69574 8.10714 8.64034 8.02543C8.58494 7.94373 8.51387 7.87385 8.43124 7.81983C8.34862 7.76581 8.25609 7.72874 8.15903 7.71077C8.06196 7.69279 7.9623 7.69427 7.86581 7.71512C7.76932 7.73596 7.67794 7.77576 7.59695 7.83221C4.33814 10.0418 1.88835 10.8224 0.972642 11.0578L0.590741 11.1402C0.584864 11.1415 0.579485 11.1438 0.573708 11.1452C0.555778 11.1498 0.538047 11.155 0.520815 11.1607C0.264023 11.2429 0.0668961 11.4557 0.0142028 11.7238C-0.0111251 11.8509 -0.00276161 11.9823 0.0384617 12.1051C0.0796851 12.2279 0.152332 12.3378 0.249181 12.4238C0.286435 12.4579 0.327374 12.488 0.370903 12.5139L0.38694 12.5247C1.51242 13.2806 5.38174 15.9946 7.91869 19.1782C10.1237 21.9454 12.2779 23.4776 14.9035 24.146C16.1248 24.4569 17.3994 24.5617 18.7547 24.5617C20.0537 24.5617 21.4269 24.4654 22.8981 24.3624C23.7302 24.3041 24.5901 24.2438 25.5013 24.1952C26.4126 24.2437 27.2726 24.304 28.1046 24.3624C33.8994 24.7684 38.0862 25.0617 42.594 19.7731C42.6575 19.6985 42.7057 19.6122 42.7359 19.5191C42.7661 19.426 42.7776 19.3278 42.7698 19.2302C42.762 19.1326 42.7351 19.0375 42.6905 18.9503C42.646 18.8631 42.5847 18.7855 42.5102 18.722C42.4357 18.6585 42.3494 18.6103 42.2563 18.5802C42.1631 18.55 42.0649 18.5385 41.9673 18.5463C41.8697 18.5541 41.7746 18.581 41.6874 18.6255C41.6003 18.6701 41.5227 18.7313 41.4592 18.8059C37.4396 23.5217 33.9649 23.2782 28.2088 22.8749C27.3585 22.8153 26.4793 22.7538 25.5405 22.7041C25.5144 22.7027 25.4881 22.7027 25.462 22.7041C24.5233 22.7538 23.6442 22.8153 22.7939 22.8749C16.8738 23.2899 13.3008 23.54 9.08471 18.2489C7.41188 16.1497 5.20753 14.2574 3.506 12.943C6.59877 13.2028 11.9121 13.3604 18.1346 12.3305C19.436 12.1149 21.3098 12.5339 23.4109 13.5092L23.4218 13.5142L23.431 13.5185C24.0803 13.8173 24.7866 13.9721 25.5013 13.9722C26.2233 13.9721 26.9365 13.8142 27.591 13.5095C29.6927 12.5339 31.5664 12.1149 32.868 12.3305C39.0865 13.3597 44.4007 13.2022 47.4948 12.9427C46.3926 13.7938 45.089 14.8808 43.8484 16.1131C43.7123 16.2533 43.6367 16.4414 43.6378 16.6368C43.6389 16.8322 43.7167 17.0194 43.8544 17.158C43.9922 17.2967 44.1788 17.3757 44.3742 17.3781C44.5696 17.3805 44.7582 17.3062 44.8993 17.171C47.1617 14.9235 49.6503 13.1732 50.6153 12.525C50.6162 12.5243 50.6172 12.5236 50.6182 12.523C50.7512 12.448 50.858 12.334 50.9241 12.1965C50.9962 12.049 51.0177 11.8819 50.9853 11.721Z"/></mask><path d="M50.9853 11.721C50.9589 11.5913 50.8984 11.4709 50.8101 11.3724C50.7217 11.2739 50.6087 11.2007 50.4826 11.1604C50.4648 11.1545 50.4467 11.1491 50.4285 11.1445C50.4228 11.1431 50.4175 11.1408 50.4119 11.1396L50.0496 11.0614C46.5736 10.1764 42.9814 7.58896 41.4984 6.4326C41.3675 6.33056 41.2375 6.2274 41.1084 6.12311C35.7438 1.78693 32.4799 0.151842 29.84 0.478958C29.5683 0.512329 29.3 0.568643 29.0378 0.647298C27.9104 0.986368 26.9158 1.743 26.0153 2.9419C25.9428 3.03843 25.8729 3.13691 25.8057 3.23724C25.7115 3.37779 25.5754 3.3988 25.5027 3.3988C25.43 3.3988 25.2941 3.37779 25.1996 3.23704C25.1332 3.13813 25.0643 3.04098 24.9928 2.94568L24.99 2.9418C23.8859 1.47196 22.6405 0.667121 21.1824 0.48125C18.6375 0.156226 15.4018 1.73284 10.3608 5.75107C10.2842 5.8121 10.2205 5.8876 10.1731 5.97328C10.1257 6.05895 10.0956 6.15312 10.0847 6.25041C10.0625 6.44689 10.1192 6.64414 10.2425 6.79876C10.3657 6.95339 10.5453 7.05272 10.7418 7.07491C10.9383 7.09711 11.1355 7.04034 11.2902 6.9171C15.9233 3.22419 18.9159 1.69529 20.9939 1.96045C22.0457 2.09452 22.9367 2.69098 23.7976 3.83728C23.8536 3.91199 23.9087 3.98969 23.9614 4.06808C24.1309 4.32126 24.3602 4.52873 24.629 4.67211C24.8978 4.81549 25.1978 4.89035 25.5025 4.89005H25.5026C25.7313 4.89021 25.9581 4.84806 26.1716 4.76574C26.5272 4.62835 26.8318 4.3847 27.044 4.06798C27.0964 3.98972 27.1509 3.91289 27.2075 3.83758C28.0716 2.68709 28.9664 2.09014 30.0234 1.95905C32.1878 1.6907 35.2221 3.28296 40.1708 7.28316C40.3526 7.42984 40.5357 7.57487 40.7201 7.71825C40.8478 7.81769 40.9761 7.9163 41.1051 8.01409C41.1205 8.02585 41.1362 8.038 41.1517 8.04966C41.3256 8.18085 41.5008 8.31041 41.6771 8.43833C41.795 8.52399 41.912 8.60796 42.0283 8.69024C42.0517 8.70678 42.0753 8.72381 42.0986 8.74025C42.2337 8.83537 42.3675 8.92801 42.5003 9.01865C42.5327 9.04077 42.5648 9.06238 42.5971 9.0843C42.7073 9.1589 42.8166 9.23211 42.925 9.30363C42.953 9.32206 42.9811 9.34089 43.009 9.35922C43.1382 9.44388 43.266 9.52646 43.3926 9.60694C43.4209 9.62497 43.4489 9.64241 43.4771 9.66014C43.5821 9.72638 43.6861 9.79112 43.7891 9.85457C43.8191 9.873 43.8493 9.89173 43.8792 9.90996C44.0023 9.98506 44.1242 10.0584 44.2447 10.1295L44.3124 10.1691C44.4143 10.2289 44.5151 10.2873 44.6149 10.3443C44.6456 10.3618 44.6763 10.3793 44.7067 10.3965C44.8218 10.4618 44.9374 10.5262 45.0534 10.5899L45.0977 10.6139C45.2273 10.6845 45.3575 10.7541 45.4882 10.8227C45.5984 10.8804 45.7078 10.9372 45.815 10.9915L45.8286 10.9983C46.0485 11.1093 46.2699 11.2172 46.4928 11.322C46.5054 11.3279 46.5182 11.3342 46.5308 11.3399C46.6299 11.3863 46.7269 11.4305 46.8226 11.4737L46.8565 11.4893C43.7813 11.712 38.8021 11.8013 33.1114 10.8594C31.069 10.5217 28.6404 11.3785 26.9632 12.1571L26.9488 12.1638C26.4955 12.3727 26.0023 12.481 25.5031 12.4812C25.0039 12.4815 24.5106 12.3737 24.0571 12.1653L24.0395 12.1571C22.3623 11.3785 19.9339 10.5213 17.8913 10.8594C12.1932 11.8026 7.21326 11.7126 4.13972 11.4892C5.32696 10.9563 6.78892 10.1817 8.43377 9.06627C8.51617 9.01192 8.58696 8.94174 8.64203 8.85982C8.6971 8.77789 8.73536 8.68585 8.75457 8.58902C8.77379 8.4922 8.77359 8.39252 8.75398 8.29577C8.73437 8.19903 8.69574 8.10714 8.64034 8.02543C8.58494 7.94373 8.51387 7.87385 8.43124 7.81983C8.34862 7.76581 8.25609 7.72874 8.15903 7.71077C8.06196 7.69279 7.9623 7.69427 7.86581 7.71512C7.76932 7.73596 7.67794 7.77576 7.59695 7.83221C4.33814 10.0418 1.88835 10.8224 0.972642 11.0578L0.590741 11.1402C0.584864 11.1415 0.579485 11.1438 0.573708 11.1452C0.555778 11.1498 0.538047 11.155 0.520815 11.1607C0.264023 11.2429 0.0668961 11.4557 0.0142028 11.7238C-0.0111251 11.8509 -0.00276161 11.9823 0.0384617 12.1051C0.0796851 12.2279 0.152332 12.3378 0.249181 12.4238C0.286435 12.4579 0.327374 12.488 0.370903 12.5139L0.38694 12.5247C1.51242 13.2806 5.38174 15.9946 7.91869 19.1782C10.1237 21.9454 12.2779 23.4776 14.9035 24.146C16.1248 24.4569 17.3994 24.5617 18.7547 24.5617C20.0537 24.5617 21.4269 24.4654 22.8981 24.3624C23.7302 24.3041 24.5901 24.2438 25.5013 24.1952C26.4126 24.2437 27.2726 24.304 28.1046 24.3624C33.8994 24.7684 38.0862 25.0617 42.594 19.7731C42.6575 19.6985 42.7057 19.6122 42.7359 19.5191C42.7661 19.426 42.7776 19.3278 42.7698 19.2302C42.762 19.1326 42.7351 19.0375 42.6905 18.9503C42.646 18.8631 42.5847 18.7855 42.5102 18.722C42.4357 18.6585 42.3494 18.6103 42.2563 18.5802C42.1631 18.55 42.0649 18.5385 41.9673 18.5463C41.8697 18.5541 41.7746 18.581 41.6874 18.6255C41.6003 18.6701 41.5227 18.7313 41.4592 18.8059C37.4396 23.5217 33.9649 23.2782 28.2088 22.8749C27.3585 22.8153 26.4793 22.7538 25.5405 22.7041C25.5144 22.7027 25.4881 22.7027 25.462 22.7041C24.5233 22.7538 23.6442 22.8153 22.7939 22.8749C16.8738 23.2899 13.3008 23.54 9.08471 18.2489C7.41188 16.1497 5.20753 14.2574 3.506 12.943C6.59877 13.2028 11.9121 13.3604 18.1346 12.3305C19.436 12.1149 21.3098 12.5339 23.4109 13.5092L23.4218 13.5142L23.431 13.5185C24.0803 13.8173 24.7866 13.9721 25.5013 13.9722C26.2233 13.9721 26.9365 13.8142 27.591 13.5095C29.6927 12.5339 31.5664 12.1149 32.868 12.3305C39.0865 13.3597 44.4007 13.2022 47.4948 12.9427C46.3926 13.7938 45.089 14.8808 43.8484 16.1131C43.7123 16.2533 43.6367 16.4414 43.6378 16.6368C43.6389 16.8322 43.7167 17.0194 43.8544 17.158C43.9922 17.2967 44.1788 17.3757 44.3742 17.3781C44.5696 17.3805 44.7582 17.3062 44.8993 17.171C47.1617 14.9235 49.6503 13.1732 50.6153 12.525C50.6162 12.5243 50.6172 12.5236 50.6182 12.523C50.7512 12.448 50.858 12.334 50.9241 12.1965C50.9962 12.049 51.0177 11.8819 50.9853 11.721Z" fill="#7A7599" stroke="white" stroke-width="0.4" mask="url(#path-1-inside-1_14_84)"/></svg>