<svg width="46" height="42" fill="none" xmlns="http://www.w3.org/2000/svg"><path d="M45.4609 28.0667H0.539062C0.396094 28.0667 0.258982 28.0099 0.157888 27.9088C0.0567939 27.8077 0 27.6706 0 27.5276C0 27.3847 0.0567939 27.2475 0.157888 27.1464C0.258982 27.0454 0.396094 26.9886 0.539062 26.9886H45.4609C45.6039 26.9886 45.741 27.0454 45.8421 27.1464C45.9432 27.2475 46 27.3847 46 27.5276C46 27.6706 45.9432 27.8077 45.8421 27.9088C45.741 28.0099 45.6039 28.0667 45.4609 28.0667ZM5.74137 35.7165C5.31491 35.7165 4.89802 35.5901 4.54343 35.3531C4.18883 35.1162 3.91246 34.7794 3.74926 34.3854C3.58606 33.9914 3.54336 33.5579 3.62656 33.1396C3.70976 32.7213 3.91512 32.3371 4.21668 32.0356C4.51823 31.734 4.90244 31.5287 5.32071 31.4455C5.73898 31.3623 6.17253 31.405 6.56654 31.5682C6.96054 31.7314 7.2973 32.0077 7.53423 32.3623C7.77116 32.7169 7.89762 33.1338 7.89762 33.5603C7.89715 34.132 7.66982 34.6802 7.26555 35.0844C6.86128 35.4887 6.3131 35.716 5.74137 35.7165ZM5.74137 32.4832C5.52814 32.4832 5.3197 32.5465 5.1424 32.6649C4.9651 32.7834 4.82692 32.9518 4.74532 33.1488C4.66372 33.3458 4.64237 33.5625 4.68397 33.7717C4.72557 33.9808 4.82825 34.1729 4.97903 34.3237C5.1298 34.4745 5.32191 34.5772 5.53104 34.6188C5.74018 34.6604 5.95695 34.639 6.15396 34.5574C6.35096 34.4758 6.51934 34.3376 6.6378 34.1603C6.75627 33.983 6.8195 33.7746 6.8195 33.5613C6.81964 33.4197 6.79186 33.2794 6.73774 33.1484C6.68363 33.0175 6.60423 32.8985 6.50411 32.7983C6.40398 32.6981 6.28508 32.6186 6.1542 32.5643C6.02333 32.5101 5.88305 32.4821 5.74137 32.4821V32.4832ZM11.5 41.1833C11.0735 41.1833 10.6566 41.0569 10.3021 40.8199C9.94746 40.583 9.67109 40.2462 9.50788 39.8522C9.34468 39.4582 9.30198 39.0247 9.38518 38.6064C9.46838 38.1881 9.67374 37.8039 9.9753 37.5024C10.2769 37.2008 10.6611 36.9955 11.0793 36.9123C11.4976 36.8291 11.9312 36.8718 12.3252 37.035C12.7192 37.1982 13.0559 37.4745 13.2929 37.8291C13.5298 38.1837 13.6562 38.6006 13.6562 39.0271C13.6557 39.5988 13.4284 40.1469 13.0241 40.5512C12.6199 40.9555 12.0717 41.1828 11.5 41.1833ZM11.5 37.95C11.2868 37.95 11.0783 38.0133 10.901 38.1317C10.7237 38.2502 10.5855 38.4186 10.5039 38.6156C10.4223 38.8126 10.401 39.0294 10.4426 39.2385C10.4842 39.4476 10.5869 39.6397 10.7376 39.7905C10.8884 39.9413 11.0805 40.044 11.2897 40.0856C11.4988 40.1272 11.7156 40.1058 11.9126 40.0242C12.1096 39.9426 12.278 39.8044 12.3964 39.6271C12.5149 39.4498 12.5781 39.2414 12.5781 39.0282C12.5781 38.7422 12.4645 38.468 12.2623 38.2658C12.0602 38.0636 11.7859 37.95 11.5 37.95ZM23 41.1833C22.5735 41.1833 22.1566 41.0569 21.8021 40.8199C21.4475 40.583 21.1711 40.2462 21.0079 39.8522C20.8447 39.4582 20.802 39.0247 20.8852 38.6064C20.9684 38.1881 21.1737 37.8039 21.4753 37.5024C21.7769 37.2008 22.1611 36.9955 22.5793 36.9123C22.9976 36.8291 23.4312 36.8718 23.8252 37.035C24.2192 37.1982 24.5559 37.4745 24.7929 37.8291C25.0298 38.1837 25.1562 38.6006 25.1562 39.0271C25.1557 39.5988 24.9284 40.1469 24.5241 40.5512C24.1199 40.9555 23.5717 41.1828 23 41.1833ZM23 37.95C22.7868 37.95 22.5783 38.0133 22.401 38.1317C22.2237 38.2502 22.0855 38.4186 22.0039 38.6156C21.9223 38.8126 21.901 39.0294 21.9426 39.2385C21.9842 39.4476 22.0869 39.6397 22.2377 39.7905C22.3884 39.9413 22.5805 40.044 22.7897 40.0856C22.9988 40.1272 23.2156 40.1058 23.4126 40.0242C23.6096 39.9426 23.778 39.8044 23.8964 39.6271C24.0149 39.4498 24.0781 39.2414 24.0781 39.0282C24.0781 38.7422 23.9645 38.468 23.7624 38.2658C23.5602 38.0636 23.2859 37.95 23 37.95ZM34.5 41.1833C34.0735 41.1833 33.6566 41.0569 33.3021 40.8199C32.9475 40.583 32.6711 40.2462 32.5079 39.8522C32.3447 39.4582 32.302 39.0247 32.3852 38.6064C32.4684 38.1881 32.6737 37.8039 32.9753 37.5024C33.2769 37.2008 33.6611 36.9955 34.0793 36.9123C34.4976 36.8291 34.9312 36.8718 35.3252 37.035C35.7192 37.1982 36.0559 37.4745 36.2929 37.8291C36.5298 38.1837 36.6562 38.6006 36.6562 39.0271C36.6557 39.5988 36.4284 40.1469 36.0241 40.5512C35.6199 40.9555 35.0717 41.1828 34.5 41.1833ZM34.5 37.95C34.2868 37.95 34.0783 38.0133 33.901 38.1317C33.7237 38.2502 33.5855 38.4186 33.5039 38.6156C33.4223 38.8126 33.401 39.0294 33.4426 39.2385C33.4842 39.4476 33.5869 39.6397 33.7376 39.7905C33.8884 39.9413 34.0805 40.044 34.2897 40.0856C34.4988 40.1272 34.7156 40.1058 34.9126 40.0242C35.1096 39.9426 35.278 39.8044 35.3964 39.6271C35.5149 39.4498 35.5781 39.2414 35.5781 39.0282C35.5781 38.7422 35.4645 38.468 35.2624 38.2658C35.0602 38.0636 34.7859 37.95 34.5 37.95ZM17.25 35.7165C16.8235 35.7165 16.4066 35.5901 16.0521 35.3531C15.6975 35.1162 15.4211 34.7794 15.2579 34.3854C15.0947 33.9914 15.052 33.5579 15.1352 33.1396C15.2184 32.7213 15.4237 32.3371 15.7253 32.0356C16.0269 31.734 16.4111 31.5287 16.8293 31.4455C17.2476 31.3623 17.6812 31.405 18.0752 31.5682C18.4692 31.7314 18.8059 32.0077 19.0429 32.3623C19.2798 32.7169 19.4062 33.1338 19.4062 33.5603C19.4058 34.132 19.1784 34.6802 18.7742 35.0844C18.3699 35.4887 17.8217 35.716 17.25 35.7165ZM17.25 32.4821C17.0368 32.4821 16.8283 32.5454 16.651 32.6638C16.4737 32.7823 16.3355 32.9507 16.2539 33.1477C16.1723 33.3447 16.151 33.5615 16.1926 33.7706C16.2342 33.9797 16.3369 34.1718 16.4877 34.3226C16.6384 34.4734 16.8305 34.5761 17.0397 34.6177C17.2488 34.6593 17.4656 34.6379 17.6626 34.5563C17.8596 34.4747 18.028 34.3365 18.1464 34.1592C18.2649 33.9819 18.3281 33.7735 18.3281 33.5603C18.3281 33.2743 18.2145 33.0001 18.0123 32.7979C17.8102 32.5957 17.5359 32.4821 17.25 32.4821ZM28.7586 35.7165C28.3322 35.7165 27.9153 35.5901 27.5607 35.3531C27.2061 35.1162 26.9297 34.7794 26.7665 34.3854C26.6033 33.9914 26.5606 33.5579 26.6438 33.1396C26.727 32.7213 26.9324 32.3371 27.2339 32.0356C27.5355 31.734 27.9197 31.5287 28.338 31.4455C28.7562 31.3623 29.1898 31.405 29.5838 31.5682C29.9778 31.7314 30.3146 32.0077 30.5515 32.3623C30.7884 32.7169 30.9149 33.1338 30.9149 33.5603C30.9144 34.132 30.6871 34.6802 30.2828 35.0844C29.8785 35.4887 29.3304 35.716 28.7586 35.7165ZM28.7586 32.4832C28.5454 32.4832 28.3369 32.5465 28.1597 32.6649C27.9824 32.7834 27.8442 32.9518 27.7626 33.1488C27.681 33.3458 27.6596 33.5625 27.7012 33.7717C27.7428 33.9808 27.8455 34.1729 27.9963 34.3237C28.1471 34.4745 28.3392 34.5772 28.5483 34.6188C28.7574 34.6604 28.9742 34.639 29.1712 34.5574C29.3682 34.4758 29.5366 34.3376 29.6551 34.1603C29.7735 33.983 29.8368 33.7746 29.8368 33.5613C29.8369 33.4197 29.8091 33.2794 29.755 33.1484C29.7009 33.0175 29.6215 32.8985 29.5214 32.7983C29.4212 32.6981 29.3023 32.6186 29.1715 32.5643C29.0406 32.5101 28.9003 32.4821 28.7586 32.4821V32.4832ZM40.268 35.7165C39.8415 35.7165 39.4246 35.5901 39.07 35.3531C38.7154 35.1162 38.4391 34.7794 38.2759 34.3854C38.1127 33.9914 38.07 33.5579 38.1532 33.1396C38.2364 32.7213 38.4417 32.3371 38.7433 32.0356C39.0448 31.734 39.429 31.5287 39.8473 31.4455C40.2656 31.3623 40.6991 31.405 41.0931 31.5682C41.4871 31.7314 41.8239 32.0077 42.0608 32.3623C42.2978 32.7169 42.4242 33.1338 42.4242 33.5603C42.4237 34.132 42.1964 34.6802 41.7921 35.0844C41.3879 35.4887 40.8397 35.716 40.268 35.7165ZM40.268 32.4832C40.0547 32.4832 39.8463 32.5465 39.669 32.6649C39.4917 32.7834 39.3535 32.9518 39.2719 33.1488C39.1903 33.3458 39.169 33.5625 39.2106 33.7717C39.2522 33.9808 39.3548 34.1729 39.5056 34.3237C39.6564 34.4745 39.8485 34.5772 40.0576 34.6188C40.2668 34.6604 40.4835 34.639 40.6805 34.5574C40.8776 34.4758 41.0459 34.3376 41.1644 34.1603C41.2829 33.983 41.3461 33.7746 41.3461 33.5613C41.3462 33.4197 41.3185 33.2794 41.2643 33.1484C41.2102 33.0175 41.1308 32.8985 41.0307 32.7983C40.9306 32.6981 40.8117 32.6186 40.6808 32.5643C40.5499 32.5101 40.4096 32.4821 40.268 32.4821V32.4832ZM45.4609 22.3167H38.6824C34.7843 22.3167 31.1427 20.1435 29.1791 16.6454C27.7797 14.154 25.4703 12.6651 23 12.6651C20.5297 12.6651 18.2203 14.154 16.8209 16.6454C14.8573 20.1435 11.2157 22.3167 7.31759 22.3167H0.539062C0.396094 22.3167 0.258982 22.2599 0.157888 22.1588C0.0567939 22.0577 0 21.9206 0 21.7776C0 21.6347 0.0567939 21.4975 0.157888 21.3964C0.258982 21.2954 0.396094 21.2386 0.539062 21.2386H7.31759C10.8265 21.2386 14.1078 19.2762 15.8808 16.1175C17.473 13.2807 20.1343 11.587 23 11.587C25.8657 11.587 28.527 13.2807 30.1192 16.1175C31.8922 19.2762 35.1735 21.2386 38.6824 21.2386H45.4609C45.6039 21.2386 45.741 21.2954 45.8421 21.3964C45.9432 21.4975 46 21.6347 46 21.7776C46 21.9206 45.9432 22.0577 45.8421 22.1588C45.741 22.2599 45.6039 22.3167 45.4609 22.3167ZM23 6.34498C22.857 6.34498 22.7199 6.28819 22.6188 6.18709C22.5177 6.086 22.4609 5.94889 22.4609 5.80592V1.35596C22.4609 1.21299 22.5177 1.07588 22.6188 0.974782C22.7199 0.873689 22.857 0.816895 23 0.816895C23.143 0.816895 23.2801 0.873689 23.3812 0.974782C23.4823 1.07588 23.5391 1.21299 23.5391 1.35596V5.80592C23.5391 5.94889 23.4823 6.086 23.3812 6.18709C23.2801 6.28819 23.143 6.34498 23 6.34498ZM15.2375 10.8269C15.1429 10.8273 15.0499 10.8024 14.968 10.7551L11.114 8.5298C10.9901 8.45832 10.8997 8.34054 10.8626 8.20238C10.8256 8.06422 10.8449 7.91699 10.9164 7.79308C10.9879 7.66918 11.1056 7.57874 11.2438 7.54167C11.382 7.50461 11.5292 7.52394 11.6531 7.59543L15.507 9.82086C15.61 9.88011 15.6905 9.97171 15.736 10.0814C15.7815 10.1911 15.7895 10.3128 15.7588 10.4275C15.7281 10.5423 15.6603 10.6436 15.566 10.7159C15.4718 10.7881 15.3563 10.8271 15.2375 10.8269ZM30.7625 10.8269C30.6437 10.8271 30.5282 10.788 30.434 10.7157C30.3397 10.6434 30.2719 10.5421 30.2412 10.4273C30.2105 10.3126 30.2185 10.1909 30.264 10.0812C30.3095 9.97153 30.39 9.87993 30.493 9.82068L34.3469 7.59543C34.4708 7.52394 34.618 7.50461 34.7562 7.54167C34.8944 7.57874 35.0121 7.66918 35.0836 7.79308C35.1551 7.91699 35.1744 8.06422 35.1374 8.20238C35.1003 8.34054 35.0099 8.45832 34.886 8.5298L31.032 10.7543C30.9502 10.802 30.8572 10.827 30.7625 10.8269Z" fill="#7A7599"/></svg>