<svg width="43" height="27" fill="none" xmlns="http://www.w3.org/2000/svg"><path d="M41.6562 26.2656H1.34375M1.34375 4.76562C4.14345 4.76562 5.2628 0.734375 8.0625 0.734375C10.8622 0.734375 11.9815 4.76562 14.7812 4.76562C17.581 4.76562 18.7003 0.734375 21.5 0.734375C24.2997 0.734375 25.419 4.76562 28.2188 4.76562C31.0185 4.76562 32.1378 0.734375 34.9375 0.734375C37.7372 0.734375 38.8565 4.76562 41.6562 4.76562M1.34375 12.8281C4.14345 12.8281 5.2628 10.1406 8.0625 10.1406C10.8622 10.1406 11.9815 12.8281 14.7812 12.8281C17.581 12.8281 18.7003 10.1406 21.5 10.1406C24.2997 10.1406 25.419 12.8281 28.2188 12.8281C31.0185 12.8281 32.1378 10.1406 34.9375 10.1406C37.7372 10.1406 38.8565 12.8281 41.6562 12.8281M1.34375 20.2188C4.14345 20.2188 5.2628 18.875 8.0625 18.875C10.8622 18.875 11.9815 20.2188 14.7812 20.2188C17.581 20.2188 18.7003 18.875 21.5 18.875C24.2997 18.875 25.419 20.2188 28.2188 20.2188C31.0185 20.2188 32.1378 18.875 34.9375 18.875C37.7372 18.875 38.8565 20.2188 41.6562 20.2188" stroke="#7A7599" stroke-linecap="round" stroke-linejoin="round"/></svg>