<svg width="302" height="325" fill="none" xmlns="http://www.w3.org/2000/svg"><rect x="10" y="34" width="289" height="285" fill="white"/><path d="M77.593 23.3702H0.483887V23.3848L77.593 23.3702Z" fill="#17213B"/><path d="M156.664 23.3711C119.207 1.54196 86.3286 -6.48197 77.6075 5.69228C74.6133 9.87171 74.7731 15.988 77.593 23.3711C77.593 23.3711 77.593 23.3711 77.6075 23.3857H0.483887V324.771L301.318 324.786V23.3711H156.664ZM88.1164 300.466C88.538 272.71 84.2792 239.508 84.2792 239.508C84.2792 239.508 86.2123 223.853 101.692 216.149C101.692 216.149 99.1341 265.793 88.1164 300.466ZM111.038 232.212C113.001 185.495 92.7822 162.181 92.1863 161.496C103.335 168.88 109.483 180.646 111.867 194.888C113.742 206.116 113.262 218.873 111.038 232.212ZM77.0261 149.948C71.4882 145.798 79.468 127.275 84.8605 111.037C89.6136 96.7079 95.2677 108.387 101.402 84.7957C103.218 77.8494 108.626 72.5341 113.059 69.1993C116.169 72.0973 119.44 75.0098 122.855 77.9077C127.318 92.1789 136.46 113.659 151.679 116.513C150.996 126.139 150.647 134.599 150.647 134.599C150.647 134.599 154.193 130.711 159.266 130.638C162.769 134.192 162.958 142.754 157.638 147.982C140.472 151.594 130.341 166.637 122.739 168.21C115.137 169.797 82.5495 154.113 77.0261 149.948ZM131.271 174.69V173.423C131.649 173.365 132.042 173.292 132.405 173.219C136.489 172.375 140.21 170.423 143.234 167.525C143.35 167.409 143.466 167.292 143.583 167.176C143.699 167.059 143.815 166.943 143.931 166.826C146.824 163.797 148.772 160.084 149.615 155.977C149.687 155.613 149.76 155.22 149.818 154.841H151.083C151.155 155.22 151.214 155.613 151.301 155.977C152.129 160.069 154.092 163.797 156.97 166.826C157.086 166.943 157.202 167.059 157.318 167.176C157.435 167.292 157.551 167.409 157.682 167.525C160.705 170.423 164.412 172.375 168.496 173.219C168.874 173.292 169.252 173.365 169.644 173.423V174.69C169.252 174.763 168.874 174.821 168.496 174.908C164.252 175.782 160.414 177.85 157.318 180.937C154.237 184.025 152.158 187.884 151.301 192.136C151.214 192.515 151.155 192.893 151.083 193.286H149.818C149.746 192.893 149.687 192.515 149.615 192.136C148.743 187.884 146.679 184.039 143.583 180.937C140.501 177.85 136.649 175.768 132.405 174.908C132.042 174.836 131.649 174.763 131.271 174.69ZM159.877 301.165C153.219 256.691 136.548 252.818 134.571 227.799C131.62 190.461 165.08 193.388 177.726 213.834C190.371 234.28 205.72 301.165 205.72 301.165H159.877ZM293.615 309.32C266.943 307.777 248.439 298.835 236.826 264.511C233.933 255.963 231.84 244.619 235.692 232.212C239.021 221.465 220.328 212.29 222.189 203.917C224.049 195.529 235.692 197.815 220.198 181.884C213.003 174.472 226.142 166.885 224.18 154.696C222.828 146.206 213.802 136.886 207.232 128.92C227.48 136.012 242.974 136.493 248.57 128.687C259.283 113.761 229.674 74.1214 182.464 40.1617C178.031 36.9725 173.598 33.9435 169.194 31.0893H293.615V309.32ZM102.579 138.007L102.172 138.677C102.172 138.677 101.809 137.73 100.457 137.497C99.7736 137.381 91.445 137.483 85.2675 133.93C83.0873 132.677 82.5059 130.915 82.5059 129.328C82.5059 127.42 83.3925 125.804 83.407 125.76C84.0902 123.197 85.2094 121.988 89.4973 121.013C90.9363 121.828 91.1979 123.27 91.1979 123.27C91.1979 123.27 92.6514 121.988 95.2387 123.066C99.9045 127.842 100.05 134.876 102.579 138.007Z" fill="#7A7599"/></svg>