<svg width="147" height="49" fill="none" xmlns="http://www.w3.org/2000/svg"><g clip-path="url(#clip0_2006_151)"><path d="M22.4905 29.1971C22.2556 28.7049 22.1164 28.0172 22.0816 27.1604L21.6119 10.6842L21.6098 10.6578C21.5815 10.3964 21.6554 10.1855 21.8446 9.99431C22.0403 9.79657 22.2665 9.6999 22.534 9.6999H22.8449V8.95508H19.7353H19.6657H19.0569V9.32639L11.5199 27.1889L2.81961 9.13304L2.7348 8.95728H-0.00946045L1.64319 12.3606L1.23437 28.1183C1.23437 29.2476 1.00387 29.8211 0.54722 29.8211H0.179723V30.5659H3.26322V29.8211H2.95226C2.43254 29.8211 2.32382 28.8631 2.32382 28.0678L2.64565 14.5357L10.3783 30.5659H11.2981L19.1634 11.8948C19.2113 13.3383 19.2852 15.4388 19.3809 18.172C19.5179 22.0279 19.5853 25.0357 19.5853 27.1098C19.5853 27.9645 19.4592 28.6544 19.2069 29.1619C19.059 29.4607 18.8242 29.8189 18.5459 29.8189H18.2371V30.5637H23.432V29.8189H23.0645C22.8862 29.8189 22.6818 29.5991 22.4905 29.1971Z" fill="#F3F3F3"/><path d="M41.7308 27.9538C41.3415 28.5953 40.6979 29.004 39.7606 29.2039C38.7712 29.4148 35.8965 29.5225 34.0112 29.5225H29.586V20.3693H36.19C36.8359 20.3693 37.386 20.4946 37.8275 20.745C38.0906 20.8944 38.4015 21.1207 38.4015 21.3602V21.7315H39.2561V18.0843H38.4015V18.3963C38.4015 18.4512 38.3602 18.6512 37.8275 18.9522C37.3882 19.2005 36.8359 19.3279 36.19 19.3279H29.586V9.99675H33.5436C35.3876 9.99675 38.2515 10.1044 39.2648 10.3153C40.2086 10.5131 40.8196 10.9327 41.1306 11.5941L41.2154 11.772H42.0896L41.4872 8.95312H25.8001V9.69795H26.1111C26.1959 9.69795 26.4546 9.69795 26.7482 10.245C26.9765 10.6713 27.0918 11.2601 27.0918 11.9939V27.5231C27.0918 28.257 26.9765 28.8436 26.7482 29.2698C26.4546 29.8169 26.1959 29.8169 26.1111 29.8169H25.8001V30.5617H42.0787L42.6093 27.8022H41.8243L41.7308 27.9538Z" fill="#F3F3F3"/><path d="M63.0412 8.95508H44.7077L44.1053 11.774H44.9208L45.0056 11.596C45.3209 10.9237 45.7863 10.5018 46.4278 10.3107C47.1214 10.102 48.2261 9.99871 49.7135 9.99871H52.6295V27.5251C52.6295 28.2523 52.5056 28.8763 52.262 29.3794C52.0555 29.6717 51.8489 29.8189 51.6488 29.8189H51.3379V30.5637H56.4154V29.9111L56.1392 29.8804C55.8935 29.854 55.6674 29.6563 55.4651 29.2959C55.239 28.8939 55.1237 28.4764 55.1237 28.0568V9.99651H58.0398C59.525 9.99651 60.6296 10.102 61.3255 10.3085C61.967 10.5018 62.4323 10.9215 62.7477 11.5938L62.8324 11.7718H63.6479L63.0412 8.95508Z" fill="#F3F3F3"/><path d="M97.862 10.4235C96.2377 9.45016 94.4371 8.95801 92.5127 8.95801H85.7303V9.70283H86.0413C86.1413 9.70283 86.4435 9.70283 86.7371 10.2499C86.9654 10.6761 87.0807 11.265 87.0807 11.9988V27.528C87.0807 28.2948 86.9393 28.9166 86.6675 29.3626C86.4566 29.668 86.2457 29.8218 86.0413 29.8218H85.7303V30.5666H92.454C94.3784 30.5666 96.1855 30.0745 97.8316 29.1011C99.4734 28.13 100.793 26.8073 101.754 25.1683C102.718 23.5271 103.205 21.7078 103.205 19.7634C103.205 17.819 102.716 15.9998 101.754 14.3585C100.793 12.7173 99.4842 11.3946 97.862 10.4235ZM89.577 10.0522L91.8103 9.99724C93.3433 9.99724 94.8068 10.4586 96.155 11.366C97.5141 12.2822 98.6275 13.5016 99.4603 14.9935C100.291 16.4809 100.711 18.0848 100.711 19.759C100.711 21.4332 100.289 23.0371 99.4603 24.5245C98.6275 26.0142 97.5076 27.2336 96.1289 28.152C94.759 29.0616 93.7 29.523 92.1669 29.523H89.5792V10.0522H89.577Z" fill="#F3F3F3"/><path d="M104.131 9.6999H104.442C104.764 9.6999 105.04 10.0273 105.26 10.6622C105.369 11.027 105.423 11.4752 105.423 11.9959V27.5251C105.423 28.004 105.369 28.4523 105.26 28.8543C105.036 29.4959 104.762 29.8189 104.442 29.8189H104.131V30.5637H109.209V29.8189H108.898C108.811 29.8189 108.546 29.8189 108.254 29.3201C108.026 28.9312 107.917 28.5182 107.917 28.0568V11.462C107.917 11.0006 108.028 10.5875 108.254 10.1986C108.546 9.6999 108.811 9.6999 108.898 9.6999H109.209V8.95508H104.131V9.6999Z" fill="#F3F3F3"/><path d="M127.173 25.3217L127.103 25.537C125.32 29.5226 119.236 30.2037 116.322 27.5364C110.503 22.2084 113.347 14.4482 116.269 12.0533C120.218 8.81478 124.146 10.7087 125.374 11.6798C125.929 12.1676 126.516 13.0179 127.123 14.2087L127.21 14.3779H128.014L127.327 11.0185L127.227 10.9482C123.532 8.28088 118.67 8.4896 115.772 10.3308C107.652 15.4874 110.244 23.4805 112.155 26.0094C118.187 33.9915 126.529 29.2831 127.307 28.6195L127.388 28.5492L128.077 25.3217H127.173Z" fill="#F3F3F3"/><path d="M146.689 29.8189C146.656 29.8189 146.48 29.7947 146.15 29.3267C145.876 28.94 145.663 28.5006 145.519 28.0216C144.467 24.6732 142.155 18.3258 138.65 9.15502L138.574 8.95508H136.216L136.138 9.15062C134.14 14.1776 132.402 18.6663 130.974 22.4937L130.852 22.9221C130.5 23.8757 129.906 25.6092 129.095 28.07C128.525 29.6497 128.084 29.8189 127.918 29.8189H127.607V30.5637H130.515V29.8189H130.204C130.058 29.8189 129.986 29.6255 129.986 29.2432C129.986 28.9598 130.041 28.6302 130.15 28.2677C130.602 26.7803 131.191 25.0687 131.898 23.1814C132.491 23.0847 132.926 23.0364 133.196 23.0364C134.214 23.0364 135.06 23.1418 135.714 23.3484C136.38 23.5593 137.143 23.8823 137.987 24.3085C138.778 24.7084 139.491 25.0226 140.105 25.2423C140.687 25.451 141.37 25.5828 142.136 25.6334C142.527 26.6177 142.853 27.5822 143.112 28.5116C143.179 28.7181 143.214 28.9642 143.214 29.2432C143.214 29.4497 143.175 29.6057 143.101 29.7068C143.042 29.7859 142.977 29.8189 142.879 29.8189H142.568V30.5637H147.002V29.8189H146.689ZM140.409 24.2404C139.881 24.0317 139.256 23.746 138.548 23.3879C137.604 22.9507 136.754 22.6079 136.021 22.3663C135.268 22.1202 134.318 21.9949 133.198 21.9949C132.881 21.9949 132.596 22.0125 132.341 22.0521C133.546 18.8069 134.997 15.0587 136.656 10.8885C138.8 16.4428 140.522 21.0392 141.779 24.5656C141.264 24.5062 140.805 24.3964 140.409 24.2404Z" fill="#F3F3F3"/><path d="M78.8458 10.4235C77.2214 9.45016 75.4209 8.95801 73.4964 8.95801C71.5719 8.95801 69.7714 9.45236 68.147 10.4235C66.5248 11.3946 65.2158 12.7173 64.2546 14.3563C63.2913 15.9976 62.8042 17.8168 62.8042 19.7612C62.8042 21.7057 63.2935 23.5249 64.2546 25.1661C65.2158 26.8052 66.5248 28.1278 68.147 29.0989C69.7714 30.0723 71.5719 30.5644 73.4964 30.5644C75.4209 30.5644 77.2214 30.0701 78.8458 29.0989C80.468 28.1278 81.777 26.8052 82.7382 25.1661C83.7015 23.5249 84.1886 21.7057 84.1886 19.7612C84.1886 17.8168 83.6993 15.9976 82.7382 14.3563C81.777 12.7173 80.4658 11.3946 78.8458 10.4235ZM66.4705 24.6586C65.7333 23.1689 65.3593 21.5211 65.3593 19.7612C65.3593 18.0013 65.7333 16.3535 66.4705 14.8638C67.2055 13.3786 68.2079 12.1812 69.4496 11.3067C70.6825 10.4389 72.0438 9.99944 73.4964 9.99944C74.949 9.99944 76.3102 10.4389 77.5432 11.3067C78.7849 12.1812 79.7873 13.3786 80.5223 14.8638C81.2595 16.3535 81.6335 18.0013 81.6335 19.7612C81.6335 21.5211 81.2595 23.1689 80.5223 24.6586C79.7873 26.146 78.7849 27.3434 77.5432 28.2157C76.3124 29.0836 74.9512 29.523 73.4964 29.523C72.0416 29.523 70.6804 29.0836 69.4496 28.2157C68.2079 27.3412 67.2055 26.146 66.4705 24.6586Z" fill="#F3F3F3"/><path d="M76.6103 19.9524C75.9079 19.8074 75.2708 19.4669 74.7489 18.9659C74.7293 18.9461 74.7076 18.9242 74.688 18.9044C74.6684 18.8846 74.6467 18.8626 74.6271 18.8429C74.1292 18.3178 73.7943 17.674 73.6508 16.9643C73.6377 16.8984 73.6247 16.8325 73.616 16.7666H73.3963C73.3855 16.8325 73.3746 16.9006 73.3616 16.9643C73.2159 17.674 72.881 18.3178 72.3852 18.8429C72.3656 18.8626 72.3439 18.8846 72.3243 18.9044C72.3047 18.9242 72.283 18.9461 72.2634 18.9659C71.7437 19.4691 71.1044 19.8074 70.402 19.9524C70.3368 19.9656 70.2715 19.9788 70.2063 19.9876V20.2095C70.2715 20.2205 70.3389 20.2314 70.402 20.2468C71.1326 20.3984 71.7937 20.7588 72.3243 21.2949C72.8549 21.8309 73.2115 22.4989 73.3616 23.2371C73.3746 23.303 73.3855 23.3689 73.3963 23.4348H73.616C73.6268 23.3689 73.6377 23.3008 73.6508 23.2371C73.8008 22.4989 74.1574 21.8309 74.688 21.2949C75.2186 20.7588 75.8797 20.3984 76.6103 20.2468C76.6755 20.2336 76.7408 20.2205 76.806 20.2095V19.9876C76.7408 19.9766 76.6755 19.9656 76.6103 19.9524ZM73.5051 17.3049C73.5029 17.3093 73.5007 17.3137 73.4985 17.3181C73.5029 17.3137 73.5051 17.3093 73.5051 17.3049Z" fill="#F3F3F3"/><path d="M39.1539 44.0446H39.2061L43.3768 36.2295H44.264V45.3321H43.092V37.9586H43.0398L38.9734 45.4881H38.7407L34.7635 37.9059H34.7113V45.3299H34.1459V36.2295H35.0201L39.1539 44.0446Z" fill="#F3F3F3"/><path d="M54.0821 36.2295V36.9458H49.4351V40.2107H53.4254V40.8083H49.4351V44.6181H54.0821V45.3343H48.2652V36.2295H54.0821Z" fill="#F3F3F3"/><path d="M57.0568 45.3321V36.2295H60.0164C60.7274 36.2295 61.3798 36.3437 61.9734 36.5744C62.5649 36.8051 63.0738 37.1215 63.4978 37.5236C63.9218 37.9257 64.2524 38.4068 64.4894 38.9605C64.7242 39.5164 64.8438 40.114 64.8438 40.7555C64.8438 41.4235 64.7221 42.0365 64.4763 42.5967C64.2328 43.1548 63.8979 43.6404 63.4717 44.0468C63.0477 44.4533 62.5519 44.7697 61.9843 44.996C61.419 45.2223 60.8122 45.3343 60.1686 45.3343H57.0568V45.3321ZM58.2267 44.7587H59.638C60.3404 44.7587 60.9362 44.64 61.4298 44.4006C61.9213 44.1633 62.3257 43.8513 62.6432 43.4712C62.9607 43.0889 63.1912 42.6626 63.3369 42.1903C63.4826 41.7179 63.5543 41.2477 63.5543 40.7797C63.5543 40.259 63.4695 39.7581 63.2977 39.2769C63.126 38.7957 62.8759 38.3717 62.5475 38.0026C62.217 37.6334 61.8104 37.3412 61.3211 37.1237C60.834 36.9062 60.273 36.7985 59.638 36.7985H58.2267V44.7587Z" fill="#F3F3F3"/><path d="M72.9114 43.03C72.9201 43.1772 72.9549 43.3574 73.0136 43.5705C73.0745 43.7836 73.1897 43.988 73.3615 44.1879C73.5333 44.3878 73.7812 44.5592 74.1074 44.702C74.4336 44.8448 74.8663 44.9174 75.4078 44.9174C76.0862 44.9174 76.6277 44.7877 77.0365 44.5263C77.4431 44.267 77.6475 43.8539 77.6475 43.2915C77.6475 42.8411 77.5192 42.4808 77.2605 42.2127C77.0039 41.9447 76.6799 41.7162 76.2884 41.5294C75.897 41.3427 75.4752 41.1757 75.0207 41.0285C74.5662 40.8813 74.1422 40.7033 73.7529 40.4946C73.3615 40.2858 73.0375 40.0266 72.7809 39.7146C72.5243 39.4026 72.3939 38.9917 72.3939 38.4798C72.3939 38.0887 72.4743 37.7438 72.6331 37.4406C72.7918 37.1374 73.0071 36.8869 73.2767 36.687C73.5485 36.487 73.8617 36.3354 74.2183 36.2322C74.5749 36.1289 74.9511 36.0762 75.3469 36.0762C75.7252 36.0762 76.0884 36.1223 76.4363 36.2124C76.7842 36.3025 77.0952 36.4387 77.3714 36.6145C77.6454 36.7924 77.8737 37.0099 78.0542 37.2648C78.2347 37.5197 78.3499 37.8097 78.4021 38.1305H77.5258C77.4562 37.6185 77.2257 37.245 76.8364 37.0055C76.445 36.7683 75.971 36.6474 75.4121 36.6474C75.0772 36.6474 74.7793 36.6892 74.5227 36.7705C74.264 36.854 74.0487 36.9616 73.8704 37.0956C73.6942 37.2297 73.5616 37.3878 73.4703 37.5702C73.3789 37.7526 73.3354 37.9481 73.3354 38.1546C73.3354 38.5282 73.4681 38.827 73.7355 39.0511C74.003 39.2774 74.3357 39.4751 74.7358 39.6487C75.1359 39.8223 75.5709 39.987 76.0384 40.143C76.5059 40.299 76.9408 40.4924 77.3409 40.7209C77.741 40.9516 78.0737 41.2372 78.3412 41.5799C78.6087 41.9227 78.7413 42.3621 78.7413 42.9004C78.7413 43.2915 78.663 43.6452 78.5087 43.966C78.3543 44.2868 78.1346 44.5592 77.8519 44.7855C77.5692 45.0118 77.2257 45.1854 76.8277 45.3062C76.4276 45.4271 75.9797 45.4886 75.4795 45.4886C74.9903 45.4886 74.5379 45.4293 74.1248 45.3128C73.7116 45.1964 73.3528 45.0316 73.0484 44.8185C72.744 44.6054 72.5026 44.3483 72.3264 44.0451C72.1503 43.7419 72.0546 43.4035 72.0372 43.03H72.9114Z" fill="#F3F3F3"/><path d="M83.2339 45.3321H82.0618V36.2295H85.0736C85.5715 36.2295 86.0043 36.3042 86.3739 36.4514C86.7436 36.5986 87.0502 36.7963 87.2938 37.0424C87.5373 37.2885 87.72 37.5807 87.8417 37.9147C87.9613 38.2486 88.0222 38.598 88.0222 38.9605C88.0222 39.3428 87.9527 39.6987 87.8157 40.0327C87.6787 40.3667 87.4743 40.6611 87.2046 40.9159C86.935 41.1708 86.5979 41.3729 86.1934 41.5201C85.789 41.6673 85.3258 41.742 84.8039 41.742C84.4951 41.742 84.2124 41.7223 83.9537 41.6827C83.6971 41.6432 83.4557 41.5948 83.2339 41.5333V45.3321ZM83.2339 41.0016C83.4144 41.0719 83.6145 41.1159 83.8384 41.1378C84.0624 41.1598 84.306 41.1708 84.5713 41.1708C84.9583 41.1708 85.2867 41.1049 85.5628 40.9753C85.839 40.8456 86.0652 40.6764 86.2456 40.4677C86.4261 40.259 86.5566 40.0283 86.6371 39.7712C86.7197 39.5164 86.7588 39.2615 86.7588 39.011C86.7588 38.7518 86.7132 38.4881 86.624 38.2245C86.5349 37.9608 86.3979 37.7213 86.2195 37.5104C86.0391 37.2973 85.8129 37.1259 85.5367 36.9963C85.2606 36.8667 84.9453 36.8007 84.5843 36.8007H83.2339V41.0016Z" fill="#F3F3F3"/><path d="M91.4319 42.6538L90.299 45.3321H89.7075L93.5173 36.2295H94.161L98.3557 45.3321H97.1075L95.8723 42.6538H91.4319ZM93.5804 37.6862H93.5282L91.6755 42.0694H95.6005L93.5804 37.6862Z" fill="#F3F3F3"/></g><defs><clipPath id="clip0_2006_151"><rect width="147" height="49" fill="white"/></clipPath></defs></svg>