<svg width="331" height="330" fill="none" xmlns="http://www.w3.org/2000/svg"><path d="M1 170.288V159.455C4.23749 158.961 7.54547 158.327 10.7175 157.693C45.6401 150.518 77.3907 133.908 103.23 109.142C104.217 108.156 105.269 107.17 106.256 106.189C107.243 105.202 108.225 104.146 109.212 103.164C133.923 77.3416 150.609 45.6114 157.794 10.7113C158.429 7.54629 158.992 4.24044 159.556 1H170.397C170.961 4.23541 171.525 7.54126 172.229 10.7113C179.339 45.6114 196.025 77.3416 220.741 103.164C221.728 104.151 222.71 105.202 223.697 106.189C224.684 107.175 225.736 108.161 226.793 109.142C252.633 133.838 284.313 150.513 319.236 157.693C322.473 158.327 325.711 158.961 329.024 159.455V170.288C325.716 170.851 322.473 171.415 319.236 172.119C282.979 179.506 250.095 197.238 223.697 223.554C197.364 249.94 179.621 282.798 172.229 319.031C171.525 322.267 170.961 325.507 170.397 328.813H159.556C158.992 325.507 158.429 322.267 157.794 319.031C150.332 282.798 132.66 249.935 106.256 223.554C79.8528 197.238 47.0449 179.511 10.7175 172.119C7.54547 171.415 4.23749 170.851 1 170.288Z" stroke="#EA6852" stroke-width="2" stroke-miterlimit="10"/></svg>