<svg width="253" height="293" fill="none" xmlns="http://www.w3.org/2000/svg"><g clip-path="url(#clip0_2004_2370)"><path d="M-46 212.725V207.239C-44.3616 206.99 -42.6876 206.668 -41.0823 206.347C-23.4094 202.714 -7.34166 194.303 5.7347 181.762C6.23411 181.262 6.76664 180.763 7.26605 180.266C7.76546 179.767 8.26232 179.232 8.76173 178.735C21.2673 165.658 29.7114 149.591 33.3474 131.918C33.6685 130.315 33.9539 128.641 34.2392 127H39.7251C40.0105 128.638 40.2958 130.312 40.6526 131.918C44.2503 149.591 52.6944 165.658 65.2026 178.735C65.702 179.234 66.1989 179.767 66.6983 180.266C67.1977 180.765 67.7302 181.265 68.2653 181.762C81.3417 194.267 97.3737 202.711 115.047 206.347C116.685 206.668 118.323 206.99 120 207.239V212.725C118.326 213.01 116.685 213.296 115.047 213.653C96.6985 217.393 80.0575 226.372 66.6983 239.698C53.3722 253.06 44.393 269.699 40.6526 288.047C40.2958 289.685 40.0105 291.326 39.7251 293H34.2392C33.9539 291.326 33.6685 289.685 33.3474 288.047C29.5713 269.699 20.6278 253.057 7.26605 239.698C-6.09569 226.372 -22.6985 217.396 -41.0823 213.653C-42.6876 213.296 -44.3616 213.01 -46 212.725Z" stroke="#EA6852" stroke-miterlimit="10"/><path d="M253 232C124.871 232 21 128.131 21 0" stroke="#EA6852" stroke-miterlimit="10"/></g><defs><clipPath id="clip0_2004_2370"><rect width="254" height="293" fill="white" transform="translate(-1)"/></clipPath></defs></svg>