<svg width="154" height="23" fill="none" xmlns="http://www.w3.org/2000/svg"><g clip-path="url(#clip0_5_154)"><path d="M13 0L16.897 7.34252L25.3637 8.63729L19.3055 14.47L20.6412 22.6127L13 18.875L5.35879 22.6127L6.6945 14.47L0.636266 8.63729L9.10298 7.34252L13 0Z" fill="#EA6852"/></g><g clip-path="url(#clip1_5_154)"><path d="M45.5 0L49.2471 7.34252L57.3882 8.63729L51.563 14.47L52.8473 22.6127L45.5 18.875L38.1527 22.6127L39.437 14.47L33.6118 8.63729L41.7529 7.34252L45.5 0Z" fill="#EA6852"/></g><g clip-path="url(#clip2_5_154)"><path d="M77.5 0L81.2471 7.34252L89.3882 8.63729L83.563 14.47L84.8473 22.6127L77.5 18.875L70.1527 22.6127L71.437 14.47L65.6118 8.63729L73.7529 7.34252L77.5 0Z" fill="#EA6852"/></g><g clip-path="url(#clip3_5_154)"><path d="M109.5 0L113.247 7.34252L121.388 8.63729L115.563 14.47L116.847 22.6127L109.5 18.875L102.153 22.6127L103.437 14.47L97.6118 8.63729L105.753 7.34252L109.5 0Z" fill="#EA6852"/></g><g clip-path="url(#clip4_5_154)"><path d="M141.5 0L145.247 7.34252L153.388 8.63729L147.563 14.47L148.847 22.6127L141.5 18.875L134.153 22.6127L135.437 14.47L129.612 8.63729L137.753 7.34252L141.5 0Z" fill="#EA6852"/></g><defs><clipPath id="clip0_5_154"><rect width="26" height="23" fill="white"/></clipPath><clipPath id="clip1_5_154"><rect width="25" height="23" fill="white" transform="translate(33)"/></clipPath><clipPath id="clip2_5_154"><rect width="25" height="23" fill="white" transform="translate(65)"/></clipPath><clipPath id="clip3_5_154"><rect width="25" height="23" fill="white" transform="translate(97)"/></clipPath><clipPath id="clip4_5_154"><rect width="25" height="23" fill="white" transform="translate(129)"/></clipPath></defs></svg>