<svg width="132" height="106" fill="none" xmlns="http://www.w3.org/2000/svg"><circle cx="53" cy="53" r="53" fill="#EE816F"/><g clip-path="url(#clip0_2012_2368)"><path d="M84.502 55.0815V59.7701C84.502 62.5211 82.2723 64.7508 79.5213 64.7508H73.1012M53.8946 86.8968L51.2906 96.6174C50.8673 98.1979 52.0593 99.7519 53.6963 99.7519H56.3029C57.4302 99.7519 58.4164 98.9948 58.7086 97.9057L61.1053 88.9637" stroke="#504A72" stroke-width="3" stroke-miterlimit="10" stroke-linecap="round" stroke-linejoin="round"/><path d="M64.2113 82.2059L62.9454 86.9299C62.5888 88.2624 61.2186 89.049 59.8939 88.6914L55.046 87.3931C53.7271 87.0371 52.9264 85.6796 53.2845 84.3416L54.5443 79.6406M57.3305 54.7495L52.2485 73.721C51.5329 76.3899 53.1262 79.1143 55.7698 79.8208L63.0533 81.7732C65.6765 82.4848 68.4345 80.9305 69.153 78.2502L70.1774 74.4233M71.6832 68.8067L75.3972 54.9421" stroke="#504A72" stroke-width="3" stroke-miterlimit="10" stroke-linecap="round" stroke-linejoin="round"/><path d="M53.0308 71.322L55.3431 71.9429C59.3294 73.0105 63.4252 70.6446 64.4944 66.6601L67.6339 54.9416M108.141 25.1289L116.551 27.9317C117.047 28.0967 117.479 28.4137 117.784 28.8378C118.09 29.2619 118.255 29.7714 118.255 30.2942V41.705C118.255 42.7759 117.569 43.7272 116.551 44.0676L108.254 46.8327" stroke="#504A72" stroke-width="3" stroke-miterlimit="10" stroke-linecap="round" stroke-linejoin="round"/><path d="M96.4242 54.7495H98.2936C103.794 54.7495 108.255 50.2901 108.255 44.7881V27.2095C108.255 21.7074 103.794 17.248 98.2936 17.248H59.2781C54.8685 17.248 50.9586 20.1402 49.7284 24.3754C47.7525 31.1763 47.7489 40.8086 49.7284 47.6221C50.9586 51.8574 54.8685 54.7495 59.2781 54.7495H90.6134M123.254 35.9989H130.755M123.759 40.9992L129.505 45.8202M123.759 30.9986L129.505 26.1775M64.981 22.7268L59.6732 17.4191" stroke="#504A72" stroke-width="3" stroke-miterlimit="10" stroke-linecap="round" stroke-linejoin="round"/><path d="M69.0898 26.836L71.0639 28.81C71.7576 29.5038 72.5812 30.0542 73.4876 30.4296C74.3941 30.8051 75.3656 30.9983 76.3467 30.9982H107.921M93.2526 30.8268V17.4199M85.7523 30.8268V17.4199M78.2519 30.8268V17.4199" stroke="#504A72" stroke-width="3" stroke-miterlimit="10" stroke-linecap="round" stroke-linejoin="round"/></g><defs><clipPath id="clip0_2012_2368"><rect width="85" height="85" fill="white" transform="translate(47 16)"/></clipPath></defs></svg>