<svg width="32" height="32" fill="none" xmlns="http://www.w3.org/2000/svg"><g clip-path="url(#clip0_259_179)"><path d="M4.10818 3.66968H-8V3.67196L4.10818 3.66968Z" fill="#17213B"/><path fill-rule="evenodd" clip-rule="evenodd" d="M15.5004 3.09088C10.0518 0.10559 5.39981 -0.90603 4.11046 0.893839C3.64029 1.55012 3.66539 2.51054 4.10818 3.66989L4.11046 3.67218H-8V50.9977L39.239 51V8H38.0293V48.5715C33.8411 48.3291 30.9356 46.9251 29.112 41.5354C28.6578 40.1931 28.3291 38.4117 28.9339 36.4635C29.2166 35.5509 28.4881 34.7105 27.8055 33.9232C27.2259 33.2546 26.6794 32.6242 26.8136 32.0204C26.9041 31.6123 27.1421 31.3651 27.3551 31.1438C27.8296 30.6511 28.18 30.2871 26.5009 28.5606C25.8932 27.9346 26.2093 27.3006 26.5833 26.5505C26.9046 25.906 27.2687 25.1758 27.1263 24.2913C26.9475 23.1684 25.9136 21.953 24.9755 20.8501C24.7999 20.6436 24.6277 20.4411 24.465 20.2439C27.6444 21.3575 30.0774 21.433 30.9562 20.2073C32.6383 17.8634 27.989 11.639 20.5758 6.30646C19.8796 5.80567 19.1835 5.33004 18.4919 4.88184H18.5149C17.6941 4.34954 17.054 3.98373 16.3875 3.60279C16.1021 3.43968 15.8118 3.2738 15.5004 3.09088ZM5.15809 37.6091C5.15809 37.6091 5.82683 42.8228 5.76064 47.1812C7.49071 41.7366 7.89241 33.9412 7.89241 33.9412C5.46165 35.1509 5.15809 37.6091 5.15809 37.6091ZM6.39972 25.3592C6.4933 25.4667 9.66813 29.1277 9.36 36.4635C9.70921 34.3688 9.78453 32.3657 9.4901 30.6026C9.11579 28.3662 8.15033 26.5186 6.39972 25.3592ZM4.78376 18.7857C4.0308 20.9294 3.30089 23.0076 4.01917 23.5459C4.88648 24.1999 10.0036 26.6627 11.1973 26.4134C11.6751 26.3146 12.2166 25.8768 12.867 25.351C13.8416 24.563 15.0608 23.5773 16.6774 23.2372C17.5128 22.4163 17.4831 21.0717 16.933 20.5137C16.1365 20.5252 15.5796 21.1357 15.5796 21.1357C15.5796 21.1357 15.6343 19.8071 15.7416 18.2956C13.3519 17.8474 11.9163 14.4745 11.2156 12.2336C10.6792 11.7785 10.1657 11.3212 9.67726 10.8661C8.98112 11.3898 8.13207 12.2244 7.84677 13.3152C7.29922 15.4211 6.77602 15.7372 6.28931 16.0312C5.91986 16.2544 5.57145 16.4649 5.24938 17.4358C5.10204 17.8795 4.94239 18.334 4.78376 18.7857ZM12.5371 27.232V27.431C12.5965 27.4424 12.6581 27.4539 12.7151 27.4653C13.3816 27.6002 13.9864 27.9272 14.4703 28.412C14.9565 28.899 15.2806 29.5027 15.4175 30.1705C15.4238 30.203 15.4293 30.2355 15.4349 30.2684C15.4396 30.2956 15.4443 30.3231 15.4495 30.3511H15.648C15.6514 30.3331 15.6545 30.3153 15.6576 30.2976C15.6652 30.2547 15.6726 30.2126 15.6823 30.1705C15.8169 29.5027 16.1433 28.8968 16.6272 28.412C17.1133 27.9272 17.7159 27.6025 18.3824 27.4653C18.4244 27.4556 18.4664 27.4481 18.5093 27.4406C18.5269 27.4375 18.5447 27.4343 18.5627 27.431V27.232C18.5011 27.2229 18.4417 27.2115 18.3824 27.2C17.741 27.0674 17.159 26.761 16.6843 26.3059C16.6637 26.2876 16.6455 26.2693 16.6272 26.2511L16.5724 26.1962C16.1205 25.7205 15.8124 25.1351 15.6823 24.4926C15.6731 24.4545 15.666 24.4143 15.6589 24.3742C15.6554 24.3541 15.6518 24.334 15.648 24.3142H15.4495C15.4403 24.3737 15.4289 24.4354 15.4175 24.4926C15.2851 25.1374 14.9793 25.7205 14.5251 26.1962L14.4703 26.2511L14.4155 26.3059C13.9408 26.761 13.3565 27.0674 12.7151 27.2C12.6581 27.2115 12.5965 27.2229 12.5371 27.232ZM14.5154 39.9277C15.3977 41.5273 16.4524 43.4397 17.0289 47.291H24.2276C24.2276 47.291 21.8174 36.7882 19.8317 33.5776C17.846 30.3671 12.5919 29.9075 13.0552 35.7706C13.1944 37.5326 13.7979 38.6267 14.5154 39.9277ZM7.96773 21.776L8.03164 21.6708C7.86862 21.469 7.76868 21.1639 7.65682 20.8225C7.49617 20.3321 7.31094 19.7668 6.87903 19.3246C6.47276 19.1554 6.24452 19.3567 6.24452 19.3567C6.24452 19.3567 6.20343 19.1303 5.97747 19.0022C5.30416 19.1554 5.12842 19.3452 5.02114 19.7477C5.02096 19.7482 5.0199 19.7504 5.0181 19.754C4.99745 19.7955 4.87963 20.0324 4.87963 20.3079C4.87963 20.5572 4.97093 20.8339 5.31329 21.0305C6.14997 21.5118 7.23795 21.566 7.5901 21.5836C7.64623 21.5864 7.68366 21.5882 7.69841 21.5908C7.91067 21.6273 7.96773 21.776 7.96773 21.776Z" fill="#EA6852"/></g><defs><clipPath id="clip0_259_179"><rect width="32" height="32" fill="white"/></clipPath></defs></svg>