<svg width="46" height="45" fill="none" xmlns="http://www.w3.org/2000/svg"><rect width="46" height="45" rx="10" fill="#EA6852"/><path d="M29.144 23.8213L28.4804 24.4819C28.4804 24.4819 26.9011 26.0511 22.5917 21.7665C18.2823 17.4819 19.8617 15.9128 19.8617 15.9128L20.2788 15.4957C21.3098 14.4719 21.4075 12.8269 20.5077 11.6253L18.6702 9.17088C17.5561 7.68338 15.405 7.48651 14.129 8.75526L11.8394 11.0303C11.2079 11.6603 10.785 12.474 10.8361 13.3782C10.9673 15.6926 12.0144 20.6698 17.8536 26.4769C24.0471 32.634 29.8586 32.879 32.2342 32.6573C32.9867 32.5873 33.64 32.2053 34.1665 31.6803L36.2373 29.6211C37.6373 28.2313 37.2436 25.8469 35.4527 24.8742L32.6673 23.359C31.4919 22.7217 30.0627 22.9084 29.144 23.8213Z" fill="white"/></svg>