<svg width="22" height="22" fill="none" xmlns="http://www.w3.org/2000/svg"><path d="M20.6387 2.29692C14.3832 6.20412 9.84376 11.0465 7.785 13.4984L2.86492 9.64338C2.80464 9.5962 2.73016 9.57082 2.65362 9.57138C2.57708 9.57194 2.50298 9.5984 2.4434 9.64646L0.676798 11.0705C0.640004 11.1002 0.609834 11.1373 0.588227 11.1793C0.56662 11.2214 0.554055 11.2675 0.55134 11.3147C0.548626 11.3619 0.555821 11.4092 0.572465 11.4534C0.589108 11.4977 0.614831 11.538 0.647978 11.5717L8.47558 19.5322C8.8421 19.9051 9.46624 19.7929 9.68338 19.3172C11.5415 15.2501 15.9901 8.48618 21.3427 3.50648C21.3938 3.45918 21.429 3.39717 21.4433 3.32904C21.4577 3.2609 21.4505 3.18999 21.4228 3.1261L21.1306 2.4507C21.1111 2.40586 21.0822 2.36575 21.0458 2.33308C21.0094 2.30041 20.9664 2.27596 20.9197 2.26137C20.873 2.24678 20.8238 2.24241 20.7752 2.24854C20.7267 2.25468 20.6803 2.27117 20.6387 2.29692Z" fill="#EA6852"/></svg>