<svg width="308" height="74" fill="none" xmlns="http://www.w3.org/2000/svg"><g clip-path="url(#clip0_1_38)"><path d="M17.332 5.46719H0V5.47047L17.332 5.46719Z" fill="#17213B"/><path d="M35.1051 5.46745C26.6857 0.560855 19.2955 -1.2427 17.3353 1.49373C16.6622 2.43315 16.6982 3.80792 17.332 5.46745C17.332 5.46745 17.332 5.46745 17.3353 5.47073H0V73.2139L67.6193 73.2172V5.46745H35.1051ZM19.6974 67.7508C19.7921 61.512 18.8349 54.049 18.8349 54.049C18.8349 54.049 19.2694 50.5303 22.7489 48.7987C22.7489 48.7987 22.1739 59.9572 19.6974 67.7508ZM24.8496 52.4091C25.2907 41.9085 20.7461 36.6681 20.6122 36.5142C23.1181 38.1738 24.5 40.8185 25.0358 44.0198C25.4573 46.5435 25.3495 49.4108 24.8496 52.4091ZM17.2046 33.9185C15.9598 32.9857 17.7535 28.8221 18.9656 25.1724C20.0339 21.9515 21.3048 24.5767 22.6835 19.274C23.0919 17.7127 24.3073 16.5179 25.3037 15.7684C26.0029 16.4197 26.738 17.0744 27.5058 17.7258C28.5088 20.9336 30.5638 25.7616 33.9845 26.4032C33.8309 28.5668 33.7525 30.4685 33.7525 30.4685C33.7525 30.4685 34.5497 29.5946 35.6899 29.5782C36.4773 30.3769 36.5197 32.3016 35.324 33.4767C31.4655 34.2884 29.1883 37.6697 27.4796 38.0232C25.7709 38.38 18.4461 34.8547 17.2046 33.9185ZM29.3974 39.4798V39.195C29.4824 39.1819 29.5706 39.1656 29.6523 39.1492C30.5703 38.9593 31.4067 38.5207 32.0863 37.8693C32.1124 37.8432 32.1385 37.817 32.1647 37.7908C32.1908 37.7646 32.2169 37.7384 32.2431 37.7122C32.8932 37.0314 33.331 36.1967 33.5205 35.2737C33.5369 35.1918 33.5532 35.1035 33.5663 35.0183H33.8505C33.8668 35.1035 33.8799 35.1918 33.8995 35.2737C34.0857 36.1934 34.5268 37.0314 35.1737 37.7122C35.1998 37.7384 35.226 37.7646 35.2521 37.7908C35.2782 37.817 35.3044 37.8432 35.3338 37.8693C36.0133 38.5207 36.8464 38.9593 37.7645 39.1492C37.8494 39.1656 37.9344 39.1819 38.0226 39.195V39.4798C37.9344 39.4962 37.8494 39.5092 37.7645 39.5289C36.8105 39.7253 35.948 40.1901 35.2521 40.884C34.5595 41.5779 34.0923 42.4453 33.8995 43.4011C33.8799 43.4862 33.8668 43.5713 33.8505 43.6597H33.5663C33.5499 43.5713 33.5369 43.4862 33.5205 43.4011C33.3245 42.4453 32.8606 41.5812 32.1647 40.884C31.472 40.1901 30.6063 39.722 29.6523 39.5289C29.5706 39.5125 29.4824 39.4962 29.3974 39.4798ZM35.8271 67.908C34.3308 57.9114 30.5834 57.0408 30.1391 51.4173C29.4758 43.0247 36.9967 43.6826 39.8391 48.2783C42.6815 52.8739 46.1316 67.908 46.1316 67.908H35.8271ZM65.8878 69.741C59.8926 69.394 55.7336 67.3842 53.1232 59.6692C52.473 57.7478 52.0026 55.1979 52.8683 52.4091C53.6165 49.9935 49.415 47.9313 49.8332 46.0492C50.2514 44.1638 52.8683 44.6777 49.3856 41.0968C47.7684 39.4307 50.7218 37.7253 50.2808 34.9856C49.9769 33.0773 47.9481 30.9824 46.4713 29.192C51.0224 30.786 54.5052 30.8941 55.763 29.1396C58.1708 25.7845 51.5158 16.8747 40.9042 9.24151C39.9077 8.52467 38.9113 7.84383 37.9213 7.20228H65.8878V69.741ZM22.9482 31.2345L22.8567 31.385C22.8567 31.385 22.775 31.1723 22.4712 31.1199C22.3176 31.0937 20.4456 31.1166 19.057 30.318C18.567 30.0365 18.4363 29.6404 18.4363 29.2836C18.4363 28.8548 18.6356 28.4915 18.6388 28.4817C18.7924 27.9056 19.044 27.6339 20.0078 27.4146C20.3312 27.5979 20.39 27.9219 20.39 27.9219C20.39 27.9219 20.7167 27.6339 21.2983 27.8761C22.347 28.9497 22.3797 30.5307 22.9482 31.2345Z" fill="#EA6852"/><path d="M120.932 43.7118C120.579 42.9786 120.37 41.9541 120.318 40.6775L119.612 16.1314L119.609 16.0922C119.566 15.7026 119.677 15.3884 119.962 15.1036C120.256 14.809 120.595 14.665 120.997 14.665H121.464V13.5554H116.793H116.688H115.773V14.1086L104.449 40.7201L91.3777 13.8205L91.2503 13.5587H87.1272L89.6102 18.6289L88.996 42.1047C88.996 43.7871 88.6497 44.6414 87.9636 44.6414H87.4114V45.7511H92.0442V44.6414H91.577C90.7962 44.6414 90.6328 43.2143 90.6328 42.0294L91.1163 21.8694L102.734 45.7511H104.116L115.933 17.935C116.005 20.0855 116.116 23.2147 116.26 27.2867C116.466 33.0312 116.567 37.5123 116.567 40.6022C116.567 41.8755 116.378 42.9033 115.999 43.6595C115.776 44.1046 115.424 44.6382 115.005 44.6382H114.541V45.7478H122.347V44.6382H121.794C121.527 44.6382 121.219 44.3108 120.932 43.7118Z" fill="#54565A"/><path d="M149.839 41.8592C149.254 42.815 148.287 43.4238 146.879 43.7216C145.393 44.0359 141.074 44.1963 138.241 44.1963H131.593V30.5599H141.515C142.485 30.5599 143.312 30.7465 143.975 31.1196C144.37 31.3422 144.837 31.6794 144.837 32.0361V32.5893H146.121V27.1557H144.837V27.6205C144.837 27.7024 144.775 28.0002 143.975 28.4487C143.315 28.8185 142.485 29.0084 141.515 29.0084H131.593V15.1069H137.539C140.309 15.1069 144.612 15.2673 146.134 15.5815C147.552 15.8761 148.47 16.5013 148.938 17.4866L149.065 17.7517H150.378L149.473 13.5521H125.904V14.6617H126.372C126.499 14.6617 126.888 14.6617 127.329 15.4768C127.672 16.1118 127.845 16.989 127.845 18.0823V41.2176C127.845 42.3109 127.672 43.1848 127.329 43.8198C126.888 44.6349 126.499 44.6349 126.372 44.6349H125.904V45.7445H150.362L151.159 41.6333H149.98L149.839 41.8592Z" fill="#54565A"/><path d="M181.857 13.5554H154.312L153.407 17.755H154.632L154.76 17.4898C155.233 16.4882 155.932 15.8598 156.896 15.575C157.938 15.264 159.598 15.1102 161.833 15.1102H166.214V41.2209C166.214 42.3043 166.028 43.2339 165.662 43.9835C165.352 44.4189 165.041 44.6382 164.741 44.6382H164.273V45.7478H171.902V44.7756L171.487 44.7298C171.118 44.6905 170.778 44.3959 170.474 43.8591C170.135 43.2601 169.961 42.6382 169.961 42.013V15.1069H174.343C176.574 15.1069 178.234 15.264 179.279 15.5717C180.243 15.8598 180.942 16.4849 181.416 17.4866L181.543 17.7517H182.768L181.857 13.5554Z" fill="#54565A"/><path d="M234.173 15.7419C231.733 14.2919 229.027 13.5587 226.136 13.5587H215.946V14.6683H216.413C216.563 14.6683 217.018 14.6683 217.459 15.4833C217.802 16.1184 217.975 16.9956 217.975 18.0888V41.2242C217.975 42.3665 217.763 43.2929 217.354 43.9573C217.037 44.4123 216.72 44.6414 216.413 44.6414H215.946V45.7511H226.048C228.939 45.7511 231.654 45.0179 234.127 43.5678C236.594 42.121 238.577 40.1505 240.021 37.7087C241.469 35.2636 242.2 32.5533 242.2 29.6565C242.2 26.7597 241.465 24.0494 240.021 21.6043C238.577 19.1592 236.61 17.1887 234.173 15.7419ZM221.725 15.1887L225.081 15.1069C227.384 15.1069 229.583 15.7943 231.608 17.1462C233.65 18.5111 235.323 20.3277 236.575 22.5503C237.823 24.7663 238.453 27.1557 238.453 29.65C238.453 32.1442 237.819 34.5336 236.575 36.7496C235.323 38.9689 233.641 40.7856 231.569 42.1538C229.511 43.5089 227.92 44.1963 225.617 44.1963H221.729V15.1887H221.725Z" fill="#54565A"/><path d="M243.592 14.665H244.059C244.543 14.665 244.958 15.1527 245.288 16.0987C245.451 16.6421 245.533 17.3098 245.533 18.0856V41.2209C245.533 41.9345 245.451 42.6022 245.288 43.2012C244.951 44.157 244.54 44.6382 244.059 44.6382H243.592V45.7478H251.221V44.6382H250.754C250.623 44.6382 250.224 44.6382 249.787 43.8951C249.444 43.3158 249.28 42.7004 249.28 42.013V17.2902C249.28 16.6028 249.447 15.9874 249.787 15.408C250.224 14.665 250.623 14.665 250.754 14.665H251.221V13.5554H243.592V14.665Z" fill="#54565A"/><path d="M278.211 37.9378L278.106 38.2586C275.427 44.1963 266.286 45.211 261.908 41.2373C253.165 33.2996 257.438 21.7385 261.829 18.1707C267.762 13.3459 273.663 16.1674 275.509 17.6142C276.342 18.3409 277.224 19.6076 278.135 21.3817L278.266 21.6338H279.475L278.442 16.629L278.292 16.5242C272.741 12.5505 265.436 12.8615 261.081 15.6044C248.882 23.2868 252.776 35.1948 255.648 38.9624C264.711 50.8541 277.243 43.8395 278.413 42.851L278.534 42.7462L279.57 37.9378H278.211Z" fill="#54565A"/><path d="M307.533 44.6382C307.484 44.6382 307.219 44.6022 306.723 43.905C306.311 43.3289 305.991 42.6742 305.775 41.9606C304.194 36.9722 300.721 27.5158 295.454 13.8533L295.34 13.5554H291.798L291.681 13.8467C288.678 21.3359 286.068 28.0231 283.921 33.7251L283.738 34.3634C283.209 35.784 282.317 38.3666 281.099 42.0327C280.243 44.3861 279.579 44.6382 279.331 44.6382H278.864V45.7478H283.232V44.6382H282.765C282.546 44.6382 282.438 44.3501 282.438 43.7806C282.438 43.3583 282.52 42.8673 282.683 42.3273C283.363 40.1113 284.248 37.5614 285.31 34.7497C286.202 34.6057 286.855 34.5336 287.26 34.5336C288.789 34.5336 290.06 34.6908 291.044 34.9984C292.043 35.3127 293.19 35.7938 294.458 36.4289C295.647 37.0246 296.719 37.4927 297.64 37.82C298.516 38.1309 299.541 38.3273 300.691 38.4026C301.28 39.869 301.77 41.306 302.158 42.6906C302.26 42.9983 302.312 43.3649 302.312 43.7806C302.312 44.0883 302.253 44.3207 302.142 44.4712C302.054 44.5891 301.956 44.6382 301.809 44.6382H301.342V45.7478H308.003V44.6382H307.533ZM298.097 36.3274C297.303 36.0164 296.366 35.5909 295.301 35.0574C293.883 34.406 292.605 33.8954 291.504 33.5353C290.374 33.1687 288.946 32.9821 287.264 32.9821C286.787 32.9821 286.359 33.0083 285.976 33.0672C287.786 28.2326 289.966 22.6485 292.458 16.4358C295.68 24.7106 298.267 31.5583 300.156 36.8118C299.381 36.7234 298.692 36.5598 298.097 36.3274Z" fill="#54565A"/><path d="M205.602 15.7419C203.162 14.2919 200.457 13.5587 197.565 13.5587C194.674 13.5587 191.969 14.2952 189.528 15.7419C187.091 17.1887 185.124 19.1592 183.68 21.601C182.233 24.0462 181.501 26.7564 181.501 29.6532C181.501 32.5501 182.236 35.2603 183.68 37.7054C185.124 40.1473 187.091 42.1178 189.528 43.5645C191.969 45.0146 194.674 45.7478 197.565 45.7478C200.457 45.7478 203.162 45.0113 205.602 43.5645C208.04 42.1178 210.006 40.1473 211.45 37.7054C212.898 35.2603 213.63 32.5501 213.63 29.6532C213.63 26.7564 212.895 24.0462 211.45 21.601C210.006 19.1592 208.036 17.1887 205.602 15.7419ZM187.009 36.9493C185.902 34.73 185.34 32.2751 185.34 29.6532C185.34 27.0314 185.902 24.5764 187.009 22.3572C188.113 20.1444 189.62 18.3605 191.485 17.0578C193.338 15.7648 195.383 15.1102 197.565 15.1102C199.748 15.1102 201.793 15.7648 203.645 17.0578C205.511 18.3605 207.017 20.1444 208.121 22.3572C209.229 24.5764 209.791 27.0314 209.791 29.6532C209.791 32.2751 209.229 34.73 208.121 36.9493C207.017 39.1653 205.511 40.9492 203.645 42.2487C201.796 43.5416 199.751 44.1963 197.565 44.1963C195.38 44.1963 193.334 43.5416 191.485 42.2487C189.62 40.9459 188.113 39.1653 187.009 36.9493Z" fill="#54565A"/><path d="M202.244 29.938C201.188 29.722 200.231 29.2146 199.447 28.4683C199.418 28.4389 199.385 28.4061 199.356 28.3767C199.326 28.3472 199.293 28.3145 199.264 28.285C198.516 27.5027 198.013 26.5436 197.797 25.4864C197.778 25.3882 197.758 25.29 197.745 25.1918H197.415C197.399 25.29 197.382 25.3915 197.363 25.4864C197.144 26.5436 196.641 27.5027 195.896 28.285C195.866 28.3145 195.834 28.3472 195.804 28.3767C195.775 28.4061 195.742 28.4389 195.713 28.4683C194.932 29.2179 193.971 29.722 192.916 29.938C192.818 29.9576 192.72 29.9773 192.622 29.9904V30.321C192.72 30.3373 192.821 30.3537 192.916 30.3766C194.014 30.6025 195.007 31.1393 195.804 31.938C196.601 32.7366 197.137 33.7317 197.363 34.8315C197.382 34.9297 197.399 35.0279 197.415 35.1261H197.745C197.761 35.0279 197.778 34.9264 197.797 34.8315C198.023 33.7317 198.558 32.7366 199.356 31.938C200.153 31.1393 201.146 30.6025 202.244 30.3766C202.342 30.357 202.44 30.3373 202.538 30.321V29.9904C202.44 29.974 202.342 29.9576 202.244 29.938ZM197.578 25.9937C197.575 26.0003 197.572 26.0068 197.568 26.0134C197.575 26.0068 197.578 26.0003 197.578 25.9937Z" fill="#54565A"/><path d="M145.968 65.8324H146.046L152.313 54.1895H153.646V67.7506H151.885V56.7655H151.806L145.697 67.983H145.347L139.372 56.687H139.293V67.7473H138.444V54.1895H139.757L145.968 65.8324Z" fill="#54565A"/><path d="M168.396 54.1895V55.2566H161.415V60.1206H167.41V61.011H161.415V66.6868H168.396V67.7538H159.657V54.1895H168.396Z" fill="#54565A"/><path d="M172.866 67.7506V54.1895H177.312C178.381 54.1895 179.361 54.3597 180.253 54.7034C181.141 55.0471 181.906 55.5184 182.543 56.1174C183.18 56.7164 183.677 57.4333 184.033 58.2582C184.386 59.0863 184.565 59.9766 184.565 60.9324C184.565 61.9275 184.382 62.8407 184.013 63.6754C183.647 64.5068 183.144 65.2302 182.504 65.8357C181.867 66.4413 181.122 66.9126 180.269 67.2498C179.42 67.5869 178.508 67.7538 177.541 67.7538H172.866V67.7506ZM174.624 66.8963H176.744C177.799 66.8963 178.694 66.7195 179.436 66.3627C180.174 66.0092 180.782 65.5444 181.259 64.9781C181.736 64.4086 182.082 63.7736 182.301 63.0698C182.52 62.3661 182.628 61.6656 182.628 60.9684C182.628 60.1926 182.501 59.4463 182.243 58.7295C181.984 58.0127 181.609 57.3809 181.115 56.831C180.619 56.2811 180.008 55.8458 179.273 55.5217C178.541 55.1977 177.698 55.0373 176.744 55.0373H174.624V66.8963Z" fill="#54565A"/><path d="M196.686 64.3202C196.699 64.5395 196.752 64.8079 196.84 65.1254C196.931 65.4429 197.105 65.7473 197.363 66.0452C197.621 66.3431 197.993 66.5984 198.483 66.8112C198.973 67.0239 199.624 67.1319 200.437 67.1319C201.456 67.1319 202.27 66.9388 202.884 66.5493C203.495 66.163 203.802 65.5477 203.802 64.7097C203.802 64.0387 203.609 63.5019 203.221 63.1026C202.835 62.7032 202.348 62.3628 201.76 62.0846C201.172 61.8064 200.538 61.5576 199.856 61.3383C199.173 61.119 198.536 60.8538 197.951 60.5429C197.363 60.2319 196.876 59.8457 196.49 59.3809C196.105 58.9161 195.909 58.304 195.909 57.5413C195.909 56.9587 196.03 56.4448 196.268 55.9931C196.507 55.5414 196.83 55.1682 197.235 54.8703C197.644 54.5725 198.114 54.3466 198.65 54.1928C199.186 54.0389 199.751 53.9604 200.346 53.9604C200.914 53.9604 201.46 54.0291 201.982 54.1633C202.505 54.2975 202.972 54.5005 203.387 54.7623C203.799 55.0275 204.142 55.3515 204.413 55.7312C204.684 56.1109 204.857 56.543 204.936 57.0209H203.619C203.515 56.2582 203.168 55.7017 202.584 55.345C201.995 54.9914 201.283 54.8114 200.444 54.8114C199.94 54.8114 199.493 54.8736 199.107 54.9947C198.719 55.1191 198.395 55.2795 198.127 55.4792C197.863 55.6788 197.663 55.9145 197.526 56.1862C197.389 56.4579 197.324 56.7492 197.324 57.0569C197.324 57.6133 197.523 58.0585 197.925 58.3924C198.327 58.7295 198.826 59.0241 199.428 59.2827C200.029 59.5413 200.682 59.7868 201.385 60.0192C202.087 60.2516 202.74 60.5396 203.342 60.88C203.943 61.2237 204.443 61.6492 204.844 62.1599C205.246 62.6705 205.446 63.3251 205.446 64.1271C205.446 64.7097 205.328 65.2367 205.096 65.7146C204.864 66.1925 204.534 66.5984 204.109 66.9355C203.685 67.2727 203.168 67.5313 202.57 67.7113C201.969 67.8913 201.296 67.983 200.545 67.983C199.81 67.983 199.13 67.8946 198.509 67.7211C197.889 67.5476 197.35 67.3021 196.892 66.9846C196.435 66.6671 196.072 66.2842 195.808 65.8324C195.543 65.3807 195.399 64.8767 195.373 64.3202H196.686Z" fill="#54565A"/><path d="M212.195 67.7506H210.434V54.1895H214.959C215.708 54.1895 216.358 54.3008 216.913 54.5201C217.468 54.7394 217.929 55.034 218.295 55.4006C218.661 55.7672 218.935 56.2026 219.118 56.7001C219.298 57.1976 219.39 57.7181 219.39 58.2582C219.39 58.8277 219.285 59.358 219.079 59.8555C218.873 60.353 218.566 60.7916 218.161 61.1713C217.756 61.551 217.25 61.8522 216.642 62.0715C216.034 62.2908 215.338 62.4021 214.554 62.4021C214.09 62.4021 213.666 62.3726 213.277 62.3137C212.891 62.2548 212.529 62.1828 212.195 62.0911V67.7506ZM212.195 61.299C212.467 61.4037 212.767 61.4692 213.104 61.5019C213.44 61.5347 213.806 61.551 214.205 61.551C214.786 61.551 215.28 61.4528 215.694 61.2597C216.109 61.0666 216.449 60.8146 216.72 60.5036C216.991 60.1926 217.188 59.8489 217.308 59.466C217.433 59.0863 217.491 58.7066 217.491 58.3334C217.491 57.9472 217.423 57.5544 217.289 57.1616C217.155 56.7688 216.949 56.412 216.681 56.0978C216.41 55.7803 216.07 55.525 215.655 55.3319C215.24 55.1387 214.767 55.0405 214.224 55.0405H212.195V61.299Z" fill="#54565A"/><path d="M224.512 63.7605L222.81 67.7506H221.922L227.645 54.1895H228.613L234.915 67.7506H233.039L231.184 63.7605H224.512ZM227.74 56.3597H227.662L224.878 62.8898H230.775L227.74 56.3597Z" fill="#54565A"/></g><defs><clipPath id="clip0_1_38"><rect width="308" height="73" fill="white" transform="translate(0 0.213623)"/></clipPath></defs></svg>