<svg width="132" height="264" fill="none" xmlns="http://www.w3.org/2000/svg"><g clip-path="url(#clip0_4008_2917)"><path d="M2 136.268V127.676C4.5662 127.285 7.18826 126.782 9.70258 126.279C37.384 120.588 62.5511 107.418 83.0327 87.7714C83.815 86.9892 84.6491 86.207 85.4313 85.4288C86.2135 84.6466 86.9958 83.8125 87.774 83.0303C107.362 62.5492 120.588 37.3829 126.279 9.70234C126.782 7.1921 127.229 4.57011 127.676 2H136.268C136.715 4.56612 137.162 7.18811 137.721 9.70234C143.356 37.3829 156.582 62.5492 176.17 83.0303C176.952 83.8125 177.735 84.6466 178.513 85.4288C179.295 86.211 180.129 86.9932 180.967 87.7714C201.449 107.358 226.56 120.584 254.242 126.279C256.808 126.782 259.374 127.285 262 127.676V136.268C259.378 136.715 256.812 137.162 254.242 137.721C225.503 143.579 199.438 157.643 178.513 178.515C157.64 199.443 143.576 225.504 137.717 254.242C137.158 256.808 136.711 259.374 136.264 262H127.672C127.225 259.378 126.778 256.808 126.275 254.242C120.36 225.504 106.352 199.439 85.4234 178.515C64.4947 157.643 38.4895 143.583 9.69461 137.721C7.18828 137.158 4.5662 136.711 2 136.268Z" stroke="white" stroke-width="2.835" stroke-miterlimit="10"/></g><defs><clipPath id="clip0_4008_2917"><rect width="132" height="264" fill="white"/></clipPath></defs></svg>