<svg width="1920" height="688" fill="none" xmlns="http://www.w3.org/2000/svg"><g clip-path="url(#clip0_2008_2377)"><path opacity="0.5" d="M1577.5 217.506C1797.02 217.506 1974.98 395.728 1974.98 615.576" stroke="#7A7599" stroke-width="1.5" stroke-miterlimit="10"/><path opacity="0.5" d="M-143.368 347.436C76.1543 347.436 254.112 525.657 254.112 745.505" stroke="#7A7599" stroke-width="1.5" stroke-miterlimit="10"/><path d="M1114.37 650.295V637.33C1118.24 636.74 1122.19 635.981 1125.98 635.222C1167.72 626.634 1205.67 606.755 1236.55 577.121C1237.73 575.94 1238.99 574.76 1240.17 573.586C1241.35 572.405 1242.52 571.141 1243.7 569.966C1273.23 539.061 1293.17 501.086 1301.76 459.316C1302.52 455.528 1303.19 451.572 1303.87 447.694H1316.82C1317.5 451.566 1318.17 455.522 1319.01 459.316C1327.51 501.086 1347.45 539.061 1376.99 569.966C1378.17 571.147 1379.35 572.405 1380.52 573.586C1381.7 574.766 1382.96 575.946 1384.23 577.121C1415.11 606.677 1452.97 626.634 1494.71 635.222C1498.58 635.981 1502.45 636.74 1506.4 637.33V650.295C1502.45 650.97 1498.58 651.644 1494.71 652.487C1451.37 661.328 1412.07 682.55 1380.52 714.045C1349.05 745.625 1327.85 784.95 1319.01 828.315C1318.17 832.187 1317.5 836.059 1316.82 840.022H1303.87C1303.19 836.065 1302.52 832.187 1301.76 828.315C1292.84 784.95 1271.72 745.619 1240.17 714.045C1208.61 682.55 1169.4 661.334 1125.98 652.487C1122.19 651.644 1118.24 650.97 1114.37 650.295Z" stroke="white" stroke-width="1.5" stroke-miterlimit="10"/><path d="M1819.12 695.046C1517.96 695.046 1273.82 450.717 1273.82 149.328" stroke="white" stroke-width="1.5" stroke-miterlimit="10"/><path opacity="0.5" d="M1743.23 168.939V154.891C1747.42 154.252 1751.71 153.43 1755.82 152.608C1801.08 143.304 1842.22 121.773 1875.71 89.6526C1876.99 88.3738 1878.35 87.095 1879.63 85.8227C1880.91 84.5439 1882.19 83.1803 1883.46 81.9015C1915.48 48.4175 1937.1 7.27379 1946.41 -37.9804C1947.23 -42.0843 1947.96 -46.371 1948.69 -50.5728H1962.74C1963.47 -46.3775 1964.2 -42.0909 1965.11 -37.9804C1974.33 7.27379 1995.95 48.4175 2027.97 81.9015C2029.25 83.1803 2030.53 84.5439 2031.8 85.8227C2033.08 87.1015 2034.45 88.3803 2035.82 89.6526C2069.3 121.675 2110.36 143.297 2155.61 152.608C2159.81 153.43 2164 154.252 2168.3 154.891V168.939C2164.01 169.67 2159.81 170.4 2155.61 171.314C2108.63 180.892 2066.01 203.884 2031.8 238.008C1997.68 272.222 1974.69 314.827 1965.11 361.811C1964.19 366.006 1963.46 370.201 1962.73 374.494H1948.69C1947.95 370.208 1947.22 366.006 1946.4 361.811C1936.73 314.827 1913.83 272.216 1879.61 238.008C1845.4 203.884 1802.88 180.898 1755.81 171.314C1751.71 170.394 1747.42 169.663 1743.23 168.939Z" stroke="#7A7599" stroke-width="1.5" stroke-miterlimit="10"/></g><defs><clipPath id="clip0_2008_2377"><rect width="1920" height="688" fill="white"/></clipPath></defs></svg>