<svg width="301" height="227" fill="none" xmlns="http://www.w3.org/2000/svg"><g clip-path="url(#clip0_4010_2925)"><path d="M445 -60.3145V-79.8124C439.177 -80.6999 433.227 -81.841 427.521 -82.982C364.706 -95.8961 307.596 -125.781 261.118 -170.365C259.343 -172.14 257.45 -173.915 255.675 -175.681C253.9 -177.456 252.125 -179.349 250.359 -181.124C205.91 -227.6 175.897 -284.708 162.982 -347.522C161.841 -353.218 160.827 -359.168 159.813 -365H140.314C139.3 -359.177 138.286 -353.227 137.018 -347.522C124.23 -284.708 94.2168 -227.6 49.7678 -181.124C47.9927 -179.349 46.2177 -177.456 44.4517 -175.681C42.6766 -173.906 40.7838 -172.131 38.8819 -170.365C-7.59573 -125.917 -64.5788 -95.9052 -127.394 -82.982C-133.218 -81.841 -139.041 -80.6999 -145 -79.8124V-60.3145C-139.05 -59.3002 -133.227 -58.2859 -127.394 -57.018C-62.1789 -43.7236 -3.03126 -11.8096 44.4517 35.5541C91.8169 83.0446 123.732 142.181 137.027 207.395C138.294 213.218 139.309 219.041 140.323 225H159.822C160.836 219.05 161.85 213.218 162.991 207.395C176.413 142.181 208.201 83.0356 255.693 35.5541C303.185 -11.8096 362.197 -43.7145 427.539 -57.018C433.227 -58.2949 439.177 -59.3092 445 -60.3145Z" stroke="white" stroke-width="2.835" stroke-miterlimit="10"/></g><defs><clipPath id="clip0_4010_2925"><rect width="301" height="227" fill="white"/></clipPath></defs></svg>