<svg width="152" height="106" fill="none" xmlns="http://www.w3.org/2000/svg"><circle cx="53" cy="53" r="53" fill="#EE816F"/><path d="M140.503 42.9432C140.503 42.9432 135.816 38.249 126.743 35.4613C107.048 29.4094 87.1248 38.6703 58.9844 26.9685" stroke="#504A72" stroke-width="3" stroke-miterlimit="10" stroke-linecap="round" stroke-linejoin="round"/><path d="M129.884 42.8803C123.796 45.7217 117.794 48.8928 112.497 50.4256L112.46 42.6586L104.686 52.3143C66.3267 59.6824 50.8763 32.3716 45.8675 20.7329C45.1643 19.0989 46.8258 17.4642 48.4598 18.1678C60.4322 23.322 81.4012 18.6944 101.458 18.3103C103.203 18.2768 104.855 18.3478 106.42 18.5064L111.966 25.3435L112.206 19.5693C126.687 23.5207 131.863 37.4034 131.863 37.4034M44 63.0807L57.1803 60.7402C71.2038 58.3065 76.0706 62.9541 82.0619 66.6492L102.422 74.8489C106.535 77.3854 108.051 82.6297 105.925 86.9694L73.6106 77.1344" stroke="#504A72" stroke-width="3" stroke-miterlimit="10" stroke-linecap="round" stroke-linejoin="round"/><path d="M52.6387 86.9695H62.5267L81.2841 95.4855C87.7358 98.4147 95.0485 98.8302 101.791 96.6508C108.777 94.3926 117.484 91.6049 121.865 90.2041C123.709 89.6143 125.415 88.6571 126.879 87.3903L150.105 67.2999C147.231 63.5552 141.907 62.7599 138.064 65.5011L121.536 77.2909L106.884 80.3356" stroke="#504A72" stroke-width="3" stroke-miterlimit="10" stroke-linecap="round" stroke-linejoin="round"/><path d="M102.422 74.8488L117.98 65.8833C123.605 62.6418 130.637 63.1458 135.742 67.1569M93.1021 71.0954L107.481 62.4316C111.961 59.8499 117.561 60.2516 121.627 63.4459" stroke="#504A72" stroke-width="3" stroke-miterlimit="10" stroke-linecap="round" stroke-linejoin="round"/></svg>