<svg width="125" height="106" fill="none" xmlns="http://www.w3.org/2000/svg"><circle cx="53" cy="53" r="53" fill="#EE816F"/><path d="M105.423 51.95L103.346 50.0499C103.32 50.0728 100.796 52.3437 97.0408 52.3437C93.3308 52.3437 90.7575 50.0687 90.7311 50.0459L88.6587 51.95C88.7967 52.0763 92.0838 55.0312 97.0408 55.0312C101.998 55.0312 105.285 52.0763 105.423 51.95ZM79.8462 50.0499C79.8198 50.0728 77.2964 52.3437 73.5408 52.3437C69.8308 52.3437 67.2575 50.0687 67.2355 50.0499L65.1587 51.95C65.2968 52.0763 68.5838 55.0312 73.5408 55.0312C78.4979 55.0312 81.7849 52.0763 81.923 51.95L79.8462 50.0499ZM93.1516 72.4664L92.2219 69.9173C86.8227 71.5647 85.332 71.5647 79.9328 69.9173L79.0031 72.4664C82.0111 73.3841 84.0453 73.8424 86.0766 73.8424C88.1079 73.8424 90.1451 73.3841 93.1516 72.4664Z" fill="#504A72"/><path d="M35.4062 91.3125H48.625C49.0145 91.3125 49.3881 91.1709 49.6636 90.9189C49.939 90.6669 50.0938 90.3251 50.0938 89.9688V81.9062C50.0938 76.7194 54.7071 72.5 60.375 72.5H64.7812C65.2424 72.5 65.6801 72.4167 66.0987 72.2957C67.049 73.4406 68.0624 74.5398 69.1346 75.5853V91.3125H72.0721V78.1948C72.1647 78.2687 72.2513 78.3493 72.3438 78.4233C74.0153 79.7536 75.6147 80.7358 77.2333 81.4265C80.0009 82.615 83.0194 83.2342 86.0767 83.2406C90.809 83.2406 95.4517 81.7289 99.2381 78.7955C99.4937 78.5979 99.7272 78.3708 99.9784 78.1666V91.3125H102.916V75.5664C103.669 74.8519 104.393 74.1128 105.088 73.3506L102.813 71.6481C101.162 73.4955 99.3305 75.2011 97.3405 76.7436C92.0559 80.8313 84.8267 81.6939 78.47 78.989C77.1041 78.4058 75.7308 77.5579 74.2708 76.3955C72.1245 74.6783 70.1747 72.7657 68.4517 70.6873C68.9323 70.031 69.1885 69.2587 69.1875 68.4688V59.0625C69.1875 56.8399 67.2106 55.0312 64.7812 55.0312H60.3339C60.0049 54.1538 59.7478 53.3717 59.5672 52.4311C59.6201 46.1101 64.4963 38.2572 70.1628 35.7135C74.3443 33.8363 78.987 32.4146 83.474 31.0413L84.0189 30.8747C89.4827 32.0034 96.2889 33.7973 101.211 37.6109C103.583 39.4505 105.693 41.8974 107.851 45.3146C108.49 46.3251 109.135 47.4176 109.947 48.8581C110.229 49.3606 110.659 50.0674 111.057 50.7071C111.64 51.649 112.112 52.6542 112.452 53.6915L112.577 54.0718C112.77 54.6577 113.398 55.0729 114.034 55.0286C114.359 55.0183 114.67 54.9101 114.92 54.7207C115.17 54.5313 115.345 54.2715 115.416 53.9818C115.44 53.8864 115.998 51.6208 116.189 50.5136C116.649 47.8476 117.003 44.9464 117.304 41.3855C117.52 38.835 117.725 36.1207 117.659 33.4506C117.567 29.7284 116.658 24.3467 112.868 19.8344C110.094 16.5315 105.984 13.9877 100.987 12.4801C97.0335 11.2868 92.5994 10.7211 87.0343 10.6996C81.3561 10.67 76.6987 11.2331 72.5656 12.4505C67.3956 13.973 63.1142 16.561 60.1841 19.9352C57.1144 23.4719 55.3049 28.12 54.9509 33.3794C54.6337 38.1013 55.465 49.3754 56.7163 54.01C56.7831 54.2383 56.9161 54.4458 57.1012 54.6107C57.1452 54.7518 57.1937 54.8915 57.2407 55.0312H47.1562C39.8668 55.0312 33.9375 60.4573 33.9375 67.125V89.9688C33.9375 90.3251 34.0922 90.6669 34.3677 90.9189C34.6431 91.1709 35.0167 91.3125 35.4062 91.3125ZM61.8438 57.7188H64.7812C65.592 57.7188 66.25 58.3221 66.25 59.0625V68.4688C66.25 69.2092 65.592 69.8125 64.7812 69.8125H61.8438V57.7188ZM110.54 21.4738C113.846 25.4096 114.639 30.1934 114.723 33.5138C114.786 36.0615 114.595 38.5945 114.377 41.1799C114.118 44.2369 113.82 46.79 113.45 49.1214C113.143 48.6289 112.846 48.1316 112.558 47.6299C111.871 46.3945 111.15 45.1749 110.396 43.9722C108.062 40.2796 105.749 37.6068 103.111 35.5617C99.0193 32.3918 93.8743 30.5199 89.1038 29.2783C90.1727 28.9277 91.2357 28.5622 92.2924 28.1818C97.4888 26.2978 104.722 23.4625 110.072 20.9403C110.23 21.1123 110.387 21.291 110.54 21.4738ZM57.8869 33.546C58.1073 30.2633 59.084 25.5279 62.4885 21.6082C65.0559 18.6506 68.8541 16.3702 73.4704 15.0103C77.223 13.9058 81.4369 13.3884 86.7082 13.3884H87.0269C92.2733 13.4086 96.4196 13.9313 100.071 15.0345C102.345 15.7198 105.284 16.9144 107.892 18.9395C102.694 21.3327 95.8571 23.9987 91.2129 25.6824C88.4076 26.6996 85.4289 27.612 82.5473 28.4935C77.9662 29.8951 73.2295 31.345 68.8717 33.3015C64.4097 35.305 60.4499 39.9396 58.3099 44.9867C57.9016 40.6787 57.7151 36.0777 57.8869 33.546ZM47.1562 57.7188H58.9062V69.8918C52.3072 70.5637 47.1562 75.6927 47.1562 81.9062V88.625H44.2188V75.729C44.222 74.5194 43.9261 73.3248 43.3533 72.2346C42.7805 71.1444 41.9456 70.1868 40.9111 69.4336L36.9088 66.5042C37.2613 61.6076 41.7175 57.7188 47.1562 57.7188ZM36.875 69.9213L39.0767 71.5325C39.7661 72.0347 40.3225 72.673 40.7043 73.3998C41.0861 74.1265 41.2833 74.9227 41.2812 75.729V88.625H36.875V69.9213Z" fill="#504A72"/><path d="M50.8281 69.1407C52.8535 69.1407 54.5 67.633 54.5 65.7813V63.7657C54.5 61.914 52.8535 60.4063 50.8281 60.4063C48.8027 60.4063 47.1562 61.914 47.1562 63.7657V65.7813C47.1562 67.633 48.8027 69.1407 50.8281 69.1407ZM50.0938 63.7657C50.0938 63.5875 50.1711 63.4166 50.3088 63.2906C50.4466 63.1646 50.6334 63.0938 50.8281 63.0938C51.0229 63.0938 51.2097 63.1646 51.3474 63.2906C51.4851 63.4166 51.5625 63.5875 51.5625 63.7657V65.7813C51.5625 65.9595 51.4851 66.1304 51.3474 66.2564C51.2097 66.3824 51.0229 66.4532 50.8281 66.4532C50.6334 66.4532 50.4466 66.3824 50.3088 66.2564C50.1711 66.1304 50.0938 65.9595 50.0938 65.7813V63.7657ZM98.9179 67.0847C99.1544 67.031 104.056 65.831 108.387 58.8986L108.888 60.7328L111.736 60.0811L110.267 54.7061C110.214 54.5107 110.114 54.3286 109.974 54.1735C109.833 54.0183 109.657 53.8941 109.457 53.8099C109.257 53.7258 109.039 53.6839 108.819 53.6873C108.599 53.6908 108.382 53.7396 108.186 53.83L102.311 56.5175L103.625 58.9215L105.504 58.0628C101.941 63.4606 98.235 64.4711 98.1894 64.4819L98.5625 65.7813L98.9179 67.0847ZM109.199 72.4597C109.436 72.406 114.337 71.206 118.668 64.2736L119.169 66.1078L122.017 65.4561L120.548 60.0811C120.495 59.8857 120.395 59.7036 120.255 59.5485C120.115 59.3933 119.938 59.2691 119.738 59.1849C119.538 59.1008 119.32 59.0589 119.1 59.0623C118.88 59.0658 118.664 59.1146 118.467 59.205L112.592 61.8925L113.907 64.2965L115.785 63.4378C112.222 68.8356 108.516 69.8461 108.471 69.8569L108.844 71.1563L109.199 72.4597Z" fill="#504A72"/></svg>