<svg width="1920" height="630" fill="none" xmlns="http://www.w3.org/2000/svg"><g clip-path="url(#clip0_4003_4)"><path opacity="0.7" d="M1008 -34.084V-42.9738C1010.65 -43.3784 1013.37 -43.8987 1015.97 -44.4189C1044.61 -50.3069 1070.65 -63.9367 1091.84 -84.2596C1092.64 -85.0689 1093.51 -85.8782 1094.32 -86.6833C1095.13 -87.4926 1095.93 -88.3597 1096.74 -89.1649C1117.01 -110.355 1130.69 -136.392 1136.58 -165.031C1137.1 -167.628 1137.56 -170.341 1138.03 -173H1146.92C1147.38 -170.345 1147.84 -167.632 1148.42 -165.031C1154.25 -136.392 1167.93 -110.355 1188.2 -89.1649C1189.01 -88.3556 1189.82 -87.4926 1190.63 -86.6833C1191.43 -85.874 1192.3 -85.0648 1193.16 -84.2596C1214.35 -63.9945 1240.33 -50.311 1268.97 -44.4189C1271.63 -43.8987 1274.28 -43.3784 1277 -42.9738V-34.084C1274.29 -33.6216 1271.63 -33.1591 1268.97 -32.5811C1239.24 -26.5197 1212.27 -11.9691 1190.63 9.62553C1169.03 31.278 1154.48 58.2403 1148.42 87.9733C1147.84 90.6282 1147.38 93.2872 1146.92 96H1138.03C1137.56 93.2872 1137.1 90.6282 1136.58 87.9733C1130.46 58.2403 1115.97 31.2739 1094.32 9.62553C1072.66 -11.9691 1045.76 -26.5156 1015.97 -32.5811C1013.37 -33.1591 1010.65 -33.6216 1008 -34.084Z" stroke="white" stroke-width="2" stroke-miterlimit="10"/><path d="M184 584.078V574.858C186.754 574.438 189.567 573.898 192.265 573.359C221.969 567.252 248.974 553.115 270.952 532.041C271.791 531.201 272.686 530.362 273.525 529.527C274.365 528.687 275.2 527.788 276.039 526.953C297.058 504.975 311.25 477.969 317.361 448.265C317.901 445.572 318.38 442.758 318.86 440H328.08C328.56 442.754 329.039 445.567 329.639 448.265C335.686 477.969 349.878 504.975 370.901 526.953C371.74 527.792 372.575 528.687 373.415 529.527C374.254 530.366 375.149 531.206 376.048 532.041C398.026 553.06 424.971 567.252 454.675 573.359C457.428 573.898 460.182 574.438 463 574.858V584.078C460.186 584.558 457.433 585.037 454.675 585.637C423.837 591.924 395.868 607.015 373.415 629.413C351.017 651.871 335.926 679.836 329.639 710.675C329.039 713.428 328.56 716.182 328.08 719H318.86C318.38 716.186 317.901 713.428 317.361 710.675C311.014 679.836 295.983 651.867 273.525 629.413C251.068 607.015 223.163 591.928 192.265 585.637C189.567 585.037 186.754 584.558 184 584.078Z" stroke="#F3F3F3" stroke-width="1.4" stroke-miterlimit="10"/><path d="M-196 35.4886V16.3872C-190.295 15.5178 -184.466 14.3999 -178.877 13.282C-117.341 0.630605 -61.3945 -28.6558 -15.8635 -72.3236C-14.1246 -74.0625 -12.2704 -75.8014 -10.5314 -77.5314C-8.79254 -79.2704 -7.06251 -81.1335 -5.32361 -82.8635C38.22 -128.394 67.6217 -184.341 80.282 -245.877C81.3999 -251.458 82.3935 -257.286 83.3872 -263H102.489C103.482 -257.295 104.476 -251.466 105.718 -245.877C118.245 -184.341 147.647 -128.394 191.199 -82.8635C192.938 -81.1246 194.668 -79.2704 196.407 -77.5314C198.146 -75.7925 200 -74.0536 201.864 -72.3236C247.394 -28.78 303.217 0.621733 364.753 13.282C370.458 14.3999 376.162 15.5178 382 16.3872V35.4886C376.171 36.4823 370.458 37.4759 364.753 38.718C300.866 51.7421 242.923 83.0069 196.407 129.407C150.007 175.932 118.742 233.866 105.718 297.753C104.476 303.458 103.482 309.171 102.489 315H83.3872C82.3935 309.171 81.3999 303.458 80.282 297.753C67.1338 233.866 35.9932 175.923 -10.5314 129.407C-57.0561 83.0069 -114.866 51.7509 -178.877 38.718C-184.466 37.4759 -190.295 36.4823 -196 35.4886Z" stroke="#F3F3F3" stroke-width="1.4" stroke-miterlimit="10"/><path opacity="0.7" d="M1681 401.537V395.423C1682.83 395.145 1684.69 394.787 1686.48 394.429C1706.18 390.38 1724.08 381.006 1738.66 367.03C1739.21 366.473 1739.81 365.917 1740.36 365.363C1740.92 364.806 1741.47 364.21 1742.03 363.656C1755.97 349.083 1765.38 331.176 1769.43 311.481C1769.79 309.694 1770.11 307.829 1770.42 306H1776.54C1776.86 307.826 1777.17 309.692 1777.57 311.481C1781.58 331.176 1790.99 349.083 1804.93 363.656C1805.49 364.213 1806.04 364.806 1806.6 365.363C1807.15 365.919 1807.75 366.476 1808.34 367.03C1822.92 380.967 1840.78 390.377 1860.48 394.429C1862.31 394.787 1864.13 395.145 1866 395.423V401.537C1864.13 401.855 1862.31 402.173 1860.48 402.571C1840.03 406.739 1821.49 416.746 1806.6 431.597C1791.75 446.489 1781.74 465.031 1777.57 485.48C1777.17 487.306 1776.86 489.134 1776.54 491H1770.42C1770.11 489.134 1769.79 487.306 1769.43 485.48C1765.22 465.031 1755.25 446.486 1740.36 431.597C1725.47 416.746 1706.97 406.742 1686.48 402.571C1684.69 402.173 1682.83 401.855 1681 401.537Z" stroke="#F3F3F3" stroke-width="2" stroke-miterlimit="10"/><path opacity="0.7" d="M1541 49.8592V40.0772C1543.92 39.6319 1546.91 39.0595 1549.77 38.487C1581.28 32.0081 1609.93 17.0102 1633.25 -5.35257C1634.14 -6.24309 1635.09 -7.1336 1635.98 -8.01957C1636.87 -8.91008 1637.76 -9.8642 1638.65 -10.7502C1660.95 -34.0671 1676 -62.7179 1682.49 -94.2312C1683.06 -97.089 1683.57 -100.074 1684.08 -103H1693.86C1694.37 -100.079 1694.88 -97.0935 1695.51 -94.2312C1701.93 -62.7179 1716.99 -34.0671 1739.29 -10.7502C1740.18 -9.85966 1741.07 -8.91008 1741.96 -8.01957C1742.85 -7.12905 1743.8 -6.23854 1744.75 -5.35257C1768.07 16.9466 1796.65 32.0035 1828.17 38.487C1831.09 39.0595 1834.01 39.6319 1837 40.0772V49.8592C1834.01 50.3681 1831.09 50.877 1828.17 51.513C1795.45 58.1828 1765.78 74.1938 1741.96 97.956C1718.19 121.782 1702.18 151.45 1695.51 184.168C1694.88 187.089 1694.37 190.015 1693.86 193H1684.08C1683.57 190.015 1683.06 187.089 1682.49 184.168C1675.75 151.45 1659.81 121.777 1635.98 97.956C1612.15 74.1938 1582.55 58.1873 1549.77 51.513C1546.91 50.877 1543.92 50.3681 1541 49.8592Z" stroke="#F3F3F3" stroke-width="2" stroke-miterlimit="10"/></g><defs><clipPath id="clip0_4003_4"><rect width="1920" height="630" fill="white"/></clipPath></defs></svg>