<svg width="768" height="697" fill="none" xmlns="http://www.w3.org/2000/svg"><path d="M766 579.422V571.523C763.641 571.164 761.231 570.702 758.92 570.239C733.475 565.008 710.341 552.898 691.514 534.845C690.795 534.126 690.029 533.407 689.31 532.691C688.591 531.972 687.875 531.202 687.156 530.487C669.151 511.66 656.994 488.526 651.759 463.08C651.297 460.773 650.886 458.363 650.475 456H642.577C642.166 458.359 641.755 460.769 641.241 463.08C636.061 488.526 623.904 511.66 605.895 530.487C605.176 531.206 604.461 531.972 603.742 532.691C603.023 533.411 602.256 534.13 601.486 534.845C582.659 552.85 559.576 565.008 534.132 570.239C531.773 570.702 529.414 571.164 527 571.523V579.422C529.41 579.833 531.769 580.243 534.132 580.757C560.549 586.143 584.508 599.071 603.742 618.257C622.928 637.495 635.856 661.451 641.241 687.868C641.755 690.227 642.166 692.586 642.577 695H650.475C650.886 692.59 651.297 690.227 651.759 687.868C657.196 661.451 670.072 637.492 689.31 618.257C708.547 599.071 732.451 586.146 758.92 580.757C761.231 580.243 763.641 579.833 766 579.422Z" stroke="white" stroke-width="2.835" stroke-miterlimit="10"/><path d="M429 2.00006C193.177 2.00002 2.00004 193.624 2 430" stroke="white" stroke-width="2.835" stroke-miterlimit="10"/></svg>