<svg width="302" height="325" fill="none" xmlns="http://www.w3.org/2000/svg"><rect x="10" y="34" width="289" height="285" fill="white"/><path d="M77.5935 23.3701H0.484375V23.3847L77.5935 23.3701Z" fill="#17213B"/><path d="M156.665 23.3711C119.208 1.54196 86.3291 -6.48197 77.608 5.69228C74.6137 9.87171 74.7736 15.988 77.5935 23.3711C77.5935 23.3711 77.5935 23.3711 77.608 23.3857H0.484375V324.771L301.319 324.786V23.3711H156.665ZM88.1169 300.466C88.5384 272.71 84.2796 239.508 84.2796 239.508C84.2796 239.508 86.2128 223.853 101.693 216.149C101.693 216.149 99.1346 265.793 88.1169 300.466ZM111.039 232.212C113.001 185.495 92.7827 162.181 92.1868 161.496C103.335 168.88 109.484 180.646 111.867 194.888C113.742 206.116 113.263 218.873 111.039 232.212ZM77.0266 149.948C71.4887 145.798 79.4685 127.275 84.861 111.037C89.614 96.7079 95.2682 108.387 101.402 84.7957C103.219 77.8494 108.626 72.5341 113.059 69.1993C116.17 72.0973 119.44 75.0098 122.856 77.9077C127.318 92.1789 136.461 113.659 151.679 116.513C150.996 126.139 150.647 134.599 150.647 134.599C150.647 134.599 154.194 130.711 159.267 130.638C162.77 134.192 162.959 142.754 157.639 147.982C140.473 151.594 130.342 166.637 122.74 168.21C115.138 169.797 82.5499 154.113 77.0266 149.948ZM131.272 174.69V173.423C131.65 173.365 132.042 173.292 132.406 173.219C136.49 172.375 140.211 170.423 143.234 167.525C143.351 167.409 143.467 167.292 143.583 167.176C143.699 167.059 143.816 166.943 143.932 166.826C146.824 163.797 148.772 160.084 149.615 155.977C149.688 155.613 149.761 155.22 149.819 154.841H151.083C151.156 155.22 151.214 155.613 151.301 155.977C152.13 160.069 154.092 163.797 156.97 166.826C157.086 166.943 157.203 167.059 157.319 167.176C157.435 167.292 157.551 167.409 157.682 167.525C160.706 170.423 164.412 172.375 168.496 173.219C168.874 173.292 169.252 173.365 169.645 173.423V174.69C169.252 174.763 168.874 174.821 168.496 174.908C164.252 175.782 160.415 177.85 157.319 180.937C154.237 184.025 152.159 187.884 151.301 192.136C151.214 192.515 151.156 192.893 151.083 193.286H149.819C149.746 192.893 149.688 192.515 149.615 192.136C148.743 187.884 146.679 184.039 143.583 180.937C140.502 177.85 136.65 175.768 132.406 174.908C132.042 174.836 131.65 174.763 131.272 174.69ZM159.877 301.165C153.22 256.691 136.548 252.818 134.571 227.799C131.621 190.461 165.081 193.388 177.726 213.834C190.372 234.28 205.721 301.165 205.721 301.165H159.877ZM293.615 309.32C266.943 307.777 248.44 298.835 236.826 264.511C233.934 255.963 231.841 244.619 235.693 232.212C239.021 221.465 220.329 212.29 222.189 203.917C224.05 195.529 235.693 197.815 220.198 181.884C213.003 174.472 226.143 166.885 224.181 154.696C222.829 146.206 213.803 136.886 207.233 128.92C227.48 136.012 242.975 136.493 248.571 128.687C259.283 113.761 229.675 74.1214 182.465 40.1617C178.031 36.9725 173.598 33.9435 169.194 31.0893H293.615V309.32ZM102.579 138.007L102.172 138.677C102.172 138.677 101.809 137.73 100.457 137.497C99.7741 137.381 91.4455 137.483 85.268 133.93C83.0878 132.677 82.5063 130.915 82.5063 129.328C82.5063 127.42 83.393 125.804 83.4075 125.76C84.0907 123.197 85.2099 121.988 89.4978 121.013C90.9367 121.828 91.1984 123.27 91.1984 123.27C91.1984 123.27 92.6519 121.988 95.2392 123.066C99.9049 127.842 100.05 134.876 102.579 138.007Z" fill="#E3E3E3"/></svg>