<svg width="102" height="144" fill="none" xmlns="http://www.w3.org/2000/svg"><path d="M88.4644 110C82.9507 110 78.4645 114.486 78.4645 119.994C78.4282 128.05 88.0844 134.73 88.4644 135C88.4644 135 98.5005 128.05 98.4643 120C98.4643 114.486 93.9781 110 88.4644 110ZM88.4644 125C85.7019 125 83.4644 122.762 83.4644 120C83.4644 117.237 85.7019 115 88.4644 115C91.2268 115 93.4643 117.237 93.4643 120C93.4643 122.762 91.2268 125 88.4644 125Z" fill="#7A7599"/><circle cx="88.4644" cy="140" r="3" fill="#7A7599"/><path d="M16.4644 0C10.9507 0 6.46446 4.48625 6.46446 9.99375C6.42821 18.05 16.0844 24.73 16.4644 25C16.4644 25 26.5005 18.05 26.4643 10C26.4643 4.48625 21.9781 0 16.4644 0ZM16.4644 15C13.7019 15 11.4644 12.7625 11.4644 10C11.4644 7.2375 13.7019 5 16.4644 5C19.2268 5 21.4643 7.2375 21.4643 10C21.4643 12.7625 19.2268 15 16.4644 15Z" fill="#7A7599"/><circle cx="16.4644" cy="30" r="3" fill="#7A7599"/><path d="M21.7019 26.0662C29.3753 25.6374 49.0933 24.3763 62.9644 29C76.4644 33.5 83.4644 51.5 62.9644 60.5C43.9644 60.5 26.6476 51.1 10.4644 63.5C-5.71888 75.9 1.38801 88 6.96436 92.5C27.9643 103.501 101.464 120.5 76.4644 86.4998C61.3613 65.9592 24.0376 128.942 30.6934 135.5C46.4262 151 92.2659 135.975 88.9646 139.5" stroke="#7A7599" stroke-opacity="0.3" stroke-dasharray="2 2"/></svg>