<svg width="48" height="45" fill="none" xmlns="http://www.w3.org/2000/svg"><rect width="48" height="45" rx="10" fill="#EA6852"/><path d="M19.7958 11.3176C21.6624 9.24821 24.5879 7.91675 27.8749 7.91675C33.5129 7.91675 38.0833 11.8338 38.0833 16.6667C38.0833 19.5674 36.4354 22.1384 33.9008 23.7309L33.7083 23.8417V29.748C33.7083 30.0384 33.6216 30.3221 33.4593 30.5629C33.2971 30.8037 33.0666 30.9905 32.7975 31.0996C32.5284 31.2086 32.2329 31.2348 31.9488 31.1748C31.6647 31.1149 31.405 30.9715 31.2029 30.763L29.5404 29.0509C31.0993 27.2076 32.0166 24.9442 32.0166 22.4986C32.0166 16.5676 26.6237 11.7142 19.7958 11.3176Z" fill="white"/><path d="M21.1448 31.0837L15.797 36.5962C15.5949 36.8047 15.3352 36.9481 15.0511 37.0081C14.767 37.068 14.4715 37.0418 14.2024 36.9328C13.9333 36.8238 13.7028 36.6369 13.5406 36.3961C13.3783 36.1553 13.2916 35.8716 13.2916 35.5812V29.675L13.0991 29.5642C10.5631 27.9717 8.91663 25.4006 8.91663 22.5C8.91663 17.6671 13.487 13.75 19.125 13.75C24.7629 13.75 29.3333 17.6671 29.3333 22.5C29.3333 26.4754 26.2402 29.8325 22.0037 30.8971C21.7198 30.9701 21.4333 31.0323 21.1448 31.0837Z" fill="white"/></svg>