<svg width="1920" height="630" fill="none" xmlns="http://www.w3.org/2000/svg"><g clip-path="url(#clip0_6004_7)"><path d="M626.555 599.654V585.021C630.921 584.355 635.383 583.499 639.662 582.642C686.766 572.95 729.592 550.515 764.445 517.07C765.776 515.738 767.195 514.406 768.526 513.08C769.858 511.748 771.182 510.321 772.513 508.996C805.845 474.116 828.351 431.258 838.042 384.117C838.898 379.842 839.658 375.377 840.419 371H855.041C855.801 375.37 856.562 379.835 857.513 384.117C867.102 431.258 889.608 474.116 922.947 508.996C924.278 510.328 925.602 511.748 926.933 513.08C928.264 514.412 929.684 515.745 931.11 517.07C965.963 550.427 1008.69 572.95 1055.8 582.642C1060.16 583.499 1064.53 584.355 1069 585.021V599.654C1064.54 600.415 1060.17 601.176 1055.8 602.128C1006.89 612.105 962.54 636.056 926.933 671.601C891.415 707.242 867.482 751.623 857.513 800.564C856.562 804.935 855.801 809.305 855.041 813.777H840.419C839.658 809.311 838.898 804.935 838.042 800.564C827.977 751.623 804.14 707.235 768.526 671.601C732.913 636.056 688.661 612.112 639.662 602.128C635.383 601.176 630.921 600.415 626.555 599.654Z" stroke="white" stroke-width="2.835" stroke-miterlimit="10"/><path d="M-14 80.6855V61.1876C-8.17671 60.3001 -2.22664 59.1591 3.47892 58.018C66.2944 45.1039 123.404 15.2185 169.882 -29.3649C171.657 -31.14 173.55 -32.915 175.325 -34.6809C177.1 -36.4559 178.875 -38.3486 180.641 -40.1237C225.09 -86.5999 255.103 -143.708 268.018 -206.522C269.159 -212.218 270.173 -218.168 271.187 -224H290.686C291.7 -218.177 292.714 -212.227 293.982 -206.522C306.77 -143.708 336.783 -86.5999 381.232 -40.1237C383.007 -38.3486 384.782 -36.4559 386.548 -34.6809C388.323 -32.9059 390.216 -31.1309 392.118 -29.3649C438.596 15.0827 495.579 45.0948 558.394 58.018C564.218 59.1591 570.041 60.3001 576 61.1876V80.6855C570.05 81.6998 564.227 82.7141 558.394 83.982C493.179 97.2764 434.031 129.19 386.548 176.554C339.183 224.045 307.268 283.181 293.973 348.395C292.706 354.218 291.691 360.041 290.677 366H271.178C270.164 360.05 269.15 354.218 268.009 348.395C254.587 283.181 222.799 224.036 175.307 176.554C127.815 129.19 68.8031 97.2855 3.46085 83.982C-2.2266 82.7051 -8.17671 81.6908 -14 80.6855Z" stroke="white" stroke-width="2.835" stroke-miterlimit="10"/><path d="M1663 605C1781.5 569.435 1900 449.746 1900 275" stroke="white" stroke-width="2"/></g><defs><clipPath id="clip0_6004_7"><rect width="1920" height="630" fill="white" transform="matrix(-1 0 0 1 1920 0)"/></clipPath></defs></svg>