<svg width="1920" height="628" fill="none" xmlns="http://www.w3.org/2000/svg"><g clip-path="url(#clip0_4006_2912)"><path d="M599.674 626.028V611.395C604.041 610.729 608.503 609.873 612.782 609.017C659.886 599.325 702.712 576.89 737.565 543.444C738.896 542.112 740.315 540.78 741.646 539.455C742.977 538.123 744.302 536.695 745.633 535.37C778.964 500.491 801.471 457.632 811.162 410.492C812.017 406.217 812.778 401.751 813.539 397.374H828.16C828.921 401.745 829.682 406.21 830.632 410.492C840.222 457.632 862.728 500.491 896.066 535.37C897.397 536.702 898.722 538.123 900.053 539.455C901.384 540.787 902.803 542.119 904.229 543.444C939.082 576.801 981.813 599.325 1028.92 609.017C1033.28 609.873 1037.65 610.729 1042.12 611.395V626.028C1037.66 626.789 1033.29 627.551 1028.92 628.502C980.013 638.479 935.66 662.43 900.053 697.976C864.534 733.616 840.602 777.997 830.632 826.939C829.682 831.309 828.921 835.679 828.16 840.151H813.539C812.778 835.686 812.017 831.309 811.162 826.939C801.097 777.997 777.26 733.61 741.646 697.976C706.033 662.43 661.781 638.486 612.782 628.502C608.503 627.551 604.041 626.789 599.674 626.028Z" stroke="white" stroke-width="2.835" stroke-miterlimit="10"/><path d="M1395.05 676.533C1055.17 676.533 779.63 400.786 779.63 60.643" stroke="white" stroke-width="2.835" stroke-miterlimit="10"/><path d="M104.822 44.6541C-119.999 44.6541 -302.252 227.177 -302.252 452.331" stroke="#EA6852" stroke-miterlimit="10"/><path d="M-198 518.917C51.6922 518.917 254.112 316.342 254.112 66.4594" stroke="#EA6852" stroke-miterlimit="10"/><path d="M1337 -53.3145V-72.8124C1342.82 -73.6999 1348.77 -74.841 1354.48 -75.982C1417.29 -88.8961 1474.4 -118.781 1520.88 -163.365C1522.66 -165.14 1524.55 -166.915 1526.32 -168.681C1528.1 -170.456 1529.88 -172.349 1531.64 -174.124C1576.09 -220.6 1606.1 -277.708 1619.02 -340.522C1620.16 -346.218 1621.17 -352.168 1622.19 -358H1641.69C1642.7 -352.177 1643.71 -346.227 1644.98 -340.522C1657.77 -277.708 1687.78 -220.6 1732.23 -174.124C1734.01 -172.349 1735.78 -170.456 1737.55 -168.681C1739.32 -166.906 1741.22 -165.131 1743.12 -163.365C1789.6 -118.917 1846.58 -88.9052 1909.39 -75.982C1915.22 -74.841 1921.04 -73.6999 1927 -72.8124V-53.3145C1921.05 -52.3002 1915.23 -51.2859 1909.39 -50.018C1844.18 -36.7236 1785.03 -4.80964 1737.55 42.5541C1690.18 90.0446 1658.27 149.181 1644.97 214.395C1643.71 220.218 1642.69 226.041 1641.68 232H1622.18C1621.16 226.05 1620.15 220.218 1619.01 214.395C1605.59 149.181 1573.8 90.0356 1526.31 42.5541C1478.81 -4.80964 1419.8 -36.7145 1354.46 -50.018C1348.77 -51.2949 1342.82 -52.3092 1337 -53.3145Z" stroke="white" stroke-width="2.835" stroke-miterlimit="10"/></g><defs><clipPath id="clip0_4006_2912"><rect width="1920" height="628" fill="white"/></clipPath></defs></svg>