<svg width="366" height="276" fill="none" xmlns="http://www.w3.org/2000/svg"><path d="M-59 289.56V284.404C-57.4603 284.17 -55.8871 283.868 -54.3786 283.566C-37.7703 280.152 -22.6705 272.247 -10.3818 260.464C-9.91252 259.994 -9.41207 259.525 -8.94274 259.058C-8.47342 258.589 -8.00649 258.086 -7.53717 257.619C4.21509 245.33 12.1505 230.23 15.5675 213.621C15.8692 212.115 16.1374 210.542 16.4055 209H21.5609C21.8291 210.54 22.0973 212.113 22.4325 213.621C25.8136 230.23 33.749 245.33 45.5036 257.619C45.973 258.088 46.4399 258.589 46.9092 259.058C47.3785 259.527 47.879 259.997 48.3818 260.464C60.6705 272.216 75.7367 280.152 92.3451 283.566C93.8847 283.868 95.4244 284.17 97 284.404V289.56C95.4268 289.828 93.8871 290.096 92.3451 290.431C75.1022 293.947 59.4636 302.385 46.9092 314.908C34.3859 327.465 25.9477 343.102 22.4325 360.345C22.0973 361.885 21.8291 363.424 21.5609 365H16.4055C16.1374 363.427 15.8692 361.885 15.5675 360.345C12.0188 343.102 3.61407 327.463 -8.94274 314.908C-21.4996 302.385 -37.1022 293.949 -54.3786 290.431C-55.8871 290.096 -57.4603 289.828 -59 289.56Z" stroke="white" stroke-width="2.835" stroke-miterlimit="10"/><path d="M249.114 297.017C99.1764 297.017 -22.3746 175.507 -22.3746 25.6206" stroke="white" stroke-width="2.835" stroke-miterlimit="10"/><path d="M121.951 12.8099C256.735 12.8099 366 122.702 366 258.262" stroke="white" stroke-width="2.835" stroke-miterlimit="10"/></svg>