<svg width="656" height="452" fill="none" xmlns="http://www.w3.org/2000/svg"><g clip-path="url(#clip0_2013_5)"><path d="M-108 444.137V435.809C-105.513 435.43 -102.972 434.943 -100.535 434.455C-73.7058 428.939 -49.3138 416.171 -29.463 397.132C-28.7048 396.374 -27.8964 395.616 -27.1383 394.862C-26.3801 394.104 -25.6259 393.291 -24.8677 392.537C-5.88331 372.686 6.93542 348.294 12.4551 321.465C12.9425 319.032 13.3757 316.491 13.809 314H22.1369C22.5701 316.487 23.0033 319.028 23.5449 321.465C29.0066 348.294 41.8253 372.686 60.8136 392.537C61.5717 393.295 62.326 394.104 63.0841 394.862C63.8423 395.62 64.6507 396.378 65.463 397.132C85.3138 416.117 109.652 428.935 136.481 434.455C138.968 434.943 141.455 435.43 144 435.809V444.137C141.459 444.57 138.968 445.003 136.481 445.545C108.627 451.223 83.3644 464.854 63.0841 485.084C42.8542 505.368 29.2232 530.627 23.5449 558.481C23.0033 560.968 22.5701 563.459 22.1369 566H13.809C13.3757 563.459 12.9425 560.968 12.4551 558.481C6.72268 530.627 -6.85419 505.364 -27.1383 485.084C-47.4224 464.854 -72.6266 451.227 -100.535 445.545C-102.972 445.003 -105.513 444.57 -108 444.137Z" stroke="#EA6852" stroke-miterlimit="10"/><path d="M251 -109C500.08 -109 702 92.9195 702 342" stroke="#7A7599" stroke-miterlimit="10"/></g><defs><clipPath id="clip0_2013_5"><rect width="656" height="452" fill="white"/></clipPath></defs></svg>