<svg width="591" height="579" fill="none" xmlns="http://www.w3.org/2000/svg"><path d="M1 418.581V407.747C4.23749 407.254 7.54547 406.62 10.7175 405.986C45.6401 398.811 77.3907 382.201 103.23 357.435C104.217 356.449 105.269 355.462 106.256 354.481C107.243 353.495 108.225 352.438 109.212 351.457C133.923 325.634 150.609 293.904 157.794 259.004C158.429 255.839 158.992 252.533 159.556 249.293H170.397C170.961 252.528 171.525 255.834 172.229 259.004C179.339 293.904 196.025 325.634 220.741 351.457C221.728 352.443 222.71 353.495 223.697 354.481C224.684 355.467 225.736 356.454 226.793 357.435C252.633 382.131 284.313 398.806 319.236 405.986C322.473 406.62 325.711 407.254 329.024 407.747V418.581C325.716 419.144 322.473 419.708 319.236 420.412C282.979 427.799 250.095 445.531 223.697 471.847C197.364 498.233 179.621 531.09 172.229 567.324C171.525 570.559 170.961 573.8 170.397 577.106H159.556C158.992 573.8 158.429 570.559 157.794 567.324C150.332 531.09 132.66 498.228 106.256 471.847C79.8528 445.531 47.0449 427.804 10.7175 420.412C7.54547 419.708 4.23749 419.144 1 418.581Z" stroke="#7A7599" stroke-width="2" stroke-miterlimit="10"/><path opacity="0.5" d="M590.681 455.971C338.696 455.971 134.417 251.829 134.417 0" stroke="#7A7599" stroke-width="2" stroke-miterlimit="10"/></svg>