<svg width="442" height="217" fill="none" xmlns="http://www.w3.org/2000/svg"><g clip-path="url(#clip0_4001_2905)"><path d="M442.445 230.654V216.021C438.079 215.355 433.617 214.499 429.338 213.642C382.234 203.95 339.408 181.515 304.555 148.07C303.224 146.738 301.805 145.406 300.474 144.08C299.142 142.748 297.818 141.321 296.487 139.996C263.155 105.116 240.649 62.2576 230.958 15.1172C230.102 10.8422 229.342 6.37693 228.581 2H213.959C213.199 6.37013 212.438 10.8354 211.487 15.1172C201.898 62.2576 179.392 105.116 146.053 139.996C144.722 141.328 143.398 142.748 142.067 144.08C140.736 145.412 139.316 146.745 137.89 148.07C103.037 181.427 60.3067 203.95 13.2024 213.642C8.83557 214.499 4.46877 215.355 0.00010765 216.021V230.654C4.46198 231.415 8.82878 232.176 13.2024 233.128C62.1064 243.105 106.46 267.056 142.067 302.601C177.585 338.242 201.518 382.623 211.487 431.564C212.438 435.935 213.199 440.305 213.959 444.777H228.581C229.342 440.311 230.102 435.935 230.958 431.564C241.023 382.623 264.86 338.235 300.474 302.601C336.087 267.056 380.339 243.112 429.338 233.128C433.617 232.176 438.079 231.415 442.445 230.654Z" stroke="white" stroke-width="2.835" stroke-miterlimit="10"/></g><defs><clipPath id="clip0_4001_2905"><rect width="442" height="217" fill="white"/></clipPath></defs></svg>