<svg width="830" height="619" fill="none" xmlns="http://www.w3.org/2000/svg"><g clip-path="url(#clip0_189_4169)"><path d="M554.112 23.9614C248.085 23.9614 0.000237472 272.414 0.000237472 578.895" stroke="white" stroke-width="2.835" stroke-miterlimit="10"/><path d="M826.445 619.028V604.396C822.079 603.729 817.617 602.873 813.338 602.017C766.234 592.325 723.408 569.89 688.555 536.444C687.224 535.112 685.805 533.78 684.474 532.455C683.142 531.123 681.818 529.695 680.487 528.37C647.155 493.491 624.649 450.632 614.958 403.492C614.102 399.217 613.342 394.751 612.581 390.375H597.959C597.199 394.745 596.438 399.21 595.487 403.492C585.898 450.632 563.392 493.491 530.053 528.37C528.722 529.702 527.398 531.123 526.067 532.455C524.736 533.787 523.316 535.119 521.89 536.444C487.037 569.801 444.307 592.325 397.202 602.017C392.836 602.873 388.469 603.729 384 604.396V619.028C388.462 619.79 392.829 620.551 397.202 621.502C446.106 631.48 490.46 655.43 526.067 690.976C561.585 726.617 585.518 770.998 595.487 819.939C596.438 824.309 597.199 828.679 597.959 833.151H612.581C613.342 828.686 614.102 824.309 614.958 819.939C625.023 770.998 648.86 726.61 684.474 690.976C720.087 655.43 764.339 631.486 813.338 621.502C817.617 620.551 822.079 619.79 826.445 619.028Z" stroke="white" stroke-width="2.835" stroke-miterlimit="10"/></g><defs><clipPath id="clip0_189_4169"><rect width="830" height="619" fill="white" transform="matrix(-1 0 0 1 830 0)"/></clipPath></defs></svg>