<svg width="325" height="172" fill="none" xmlns="http://www.w3.org/2000/svg"><g clip-path="url(#clip0_4009_2922)"><path d="M322 167.251V156.676C318.842 156.194 315.615 155.575 312.52 154.956C278.452 147.952 247.478 131.738 222.27 107.566C221.308 106.604 220.281 105.641 219.318 104.683C218.356 103.72 217.398 102.689 216.435 101.731C192.328 76.5232 176.05 45.5488 169.041 11.4799C168.422 8.39037 167.872 5.16326 167.322 2H156.747C156.197 5.15835 155.647 8.38546 154.959 11.4799C148.023 45.5488 131.746 76.5232 107.634 101.731C106.671 102.694 105.713 103.72 104.75 104.683C103.788 105.646 102.761 106.609 101.73 107.566C76.5221 131.674 45.6169 147.952 11.5486 154.956C8.39028 155.575 5.23198 156.194 2 156.676V167.251C5.22706 167.801 8.38536 168.351 11.5486 169.039C46.9186 176.249 78.9977 193.559 104.75 219.248C130.439 245.006 147.748 277.081 154.959 312.451C155.647 315.61 156.197 318.768 156.747 322H167.322C167.872 318.773 168.422 315.61 169.041 312.451C176.32 277.081 193.561 245.001 219.318 219.248C245.076 193.559 277.081 176.254 312.52 169.039C315.615 168.351 318.842 167.801 322 167.251Z" stroke="white" stroke-width="2.835" stroke-miterlimit="10"/></g><defs><clipPath id="clip0_4009_2922"><rect width="325" height="172" fill="white"/></clipPath></defs></svg>